<?xml version="1.0" standalone="no"?>
<!DOCTYPE svg PUBLIC "-//W3C//DTD SVG 1.1//EN" "http://www.w3.org/Graphics/SVG/1.1/DTD/svg11.dtd" >
<svg xmlns="http://www.w3.org/2000/svg">
<metadata></metadata>
<defs>
<font id="accolade-lightregular" horiz-adv-x="1255" >
<font-face units-per-em="2048" ascent="1638" descent="-410" />
<missing-glyph horiz-adv-x="593" />
<glyph horiz-adv-x="2048" />
<glyph horiz-adv-x="2048" />
<glyph unicode="&#xd;" horiz-adv-x="593" />
<glyph unicode=" "  horiz-adv-x="593" />
<glyph unicode="&#x09;" horiz-adv-x="593" />
<glyph unicode="&#xa0;" horiz-adv-x="593" />
<glyph unicode="!" horiz-adv-x="563" d="M117 1470l262 50l-43 -1184h-117zM156 102q0 53 37 92t86 39q55 0 96 -37.5t41 -93.5q0 -47 -36 -88t-89 -41q-49 0 -96 37q-39 39 -39 92z" />
<glyph unicode="&#x22;" horiz-adv-x="854" d="M74 956l71 52q84 68 84 163q0 33 -11 47.5t-56 41t-60 49.5q-14 29 -14 67q0 55 37 92t92 37q66 0 115 -61q43 -61 43 -166v-25q0 -12 -4 -28l-13 -70q-6 -27 -22 -53l-31 -60q-31 -43 -61.5 -73.5t-104.5 -85.5zM459 956l71 52q82 66 82 163q0 33 -10 47.5t-55 41 t-60 49.5q-14 29 -14 71q0 55 35 90t92 35q66 0 115 -61q43 -61 43 -166l-2 -66q0 -18 -2 -25t-15 -40q-12 -45 -44.5 -95.5t-64.5 -82t-106 -86.5z" />
<glyph unicode="#" horiz-adv-x="1294" d="M109 475l18 86h235l74 352h-235l18 86h236l92 439h86l-92 -439h227l92 439h86l-92 -439h236l-19 -86h-235l-76 -352h237l-18 -86h-236l-92 -438h-86l92 438h-227l-92 -438h-86l92 438h-235zM449 561h225l76 352h-228z" />
<glyph unicode="$" horiz-adv-x="1155" d="M82 98v342h90q12 -94 37 -143l43 -66l61 -61l39 -29l41 -24q51 -14 111 -15v615l-174 63q-41 16 -141.5 85t-100.5 253q0 180 106.5 258t166 100.5t153.5 22.5v143h94v-143q137 0 187 -20q23 -6 69 -31l113 -55v-336h-94q-6 63 -21 94l-16 41l-19 39q-33 51 -70.5 88 t-67.5 49t-83 18v-507q129 -49 178 -74q29 -14 56.5 -31.5t68.5 -46.5q61 -45 115 -137q20 -43 32.5 -90t12.5 -97q0 -113 -54 -199.5t-132 -142.5q-23 -18 -50.5 -31.5t-66.5 -27.5l-80 -18q-35 -6 -88 -7v-196h-96v201q-162 18 -224.5 36.5t-195.5 79.5zM283 1155 q0 -74 60 -138.5t169 -105.5v478q-45 -6 -90 -19q-33 -12 -86 -65.5t-53 -149.5zM600 104q63 6 100 18.5t72 42.5t74 83q35 66 35 135q0 215 -281 301v-580z" />
<glyph unicode="%" horiz-adv-x="1527" d="M88 1126q0 170 86 286t223 116q49 0 96.5 -19.5t81.5 -52.5l29 -31q78 -84 184 -84q57 0 95.5 7.5t79.5 33.5q68 37 118 138h113l-735 -1553h-127l643 1336l-49 -29l-49 -25q-25 -6 -46.5 -10t-48.5 -4h-34l-23 2l-41 14l8 -47l2 -57v-41q0 -27 -4 -51q0 -23 -12 -76 q-12 -82 -99 -161t-186 -79q-129 0 -217 108.5t-88 278.5zM248 1130q0 -301 149 -301q145 0 146 301q0 299 -146 300q-149 -1 -149 -300zM829 346q0 174 84.5 282.5t221.5 108.5t221 -108.5t84 -288.5t-84 -284.5t-221 -104.5q-135 0 -224 106q-82 113 -82 289zM991 344 q0 -301 144 -301q143 0 143 301t-143 301q-144 0 -144 -301z" />
<glyph unicode="&#x26;" horiz-adv-x="1523" d="M88 436q0 94 29.5 178t81.5 136l86 77l30 23l76 49l-59 84l-35 74q-10 29 -18.5 67.5t-8.5 71.5q0 137 92.5 229.5t239.5 92.5q137 0 227.5 -78t90.5 -201q0 -111 -69 -183.5t-106 -105.5l-36 -28l-64 -39l414 -465q20 45 33 94l8 84q0 59 -17.5 91t-54.5 46.5t-100 14.5 v92h504v-92q-82 -12 -105 -41q-25 -25 -43 -70l-39 -109l-22 -69l-19 -49l-47 -105l41 -43l59 -69l25 -27l41 -31l51 -33l29 -8l39 -8v-86h-301q-25 47 -43 68l-54 67l-88 -76q-72 -53 -160.5 -80.5t-187.5 -27.5q-227 0 -373.5 135t-146.5 350zM295 455 q0 -145 104.5 -245.5t247.5 -100.5q131 0 221 63l84 76l-473 536l-76 -65q-27 -27 -67 -88q-18 -31 -29.5 -75t-11.5 -101zM449 1237q0 -63 28 -115l41 -71l43 -60q80 55 109.5 85t54.5 82t25 91q0 61 -45.5 101.5t-110.5 40.5q-61 0 -103 -45.5t-42 -108.5z" />
<glyph unicode="'" horiz-adv-x="471" d="M74 965q41 23 71 50t50 58q39 59 38 107q0 31 -10 43q-6 14 -68.5 45.5t-62.5 107.5q0 51 37 92t90 41q66 0 114 -63.5t48 -157.5q0 -90 -32 -161.5t-66 -108.5l-62 -64l-84 -61z" />
<glyph unicode="(" horiz-adv-x="552" d="M88 735l6 146q4 35 9.5 73.5t13.5 81.5q29 176 90 356.5t235 467.5h140q-84 -168 -127 -280t-99.5 -338t-56.5 -507q0 -141 10 -245.5t23 -172.5q6 -35 20 -90q53 -211 92 -321.5t138 -294.5h-140l-86 149l-65 123q-37 76 -127 334q-35 109 -55 242q-8 61 -14.5 136 t-6.5 140z" />
<glyph unicode=")" horiz-adv-x="552" d="M-29 -389q82 164 130 287t81 256q72 309 72 581q0 276 -55 508l-49 191q-20 74 -44 133q-14 43 -50 118.5t-85 174.5h140q92 -156 149 -273q27 -51 55 -131l72 -196q78 -223 78 -525l-6 -147q-2 -31 -8.5 -72t-14.5 -86q-25 -166 -88 -344t-237 -475h-140z" />
<glyph unicode="*" horiz-adv-x="1021" d="M74 1174l53 149l168 -33l61 -57l58 -29l39 -10l20 -16l-4 26l-4 45l-2 31l-12 33l-39 82l18 161h164l16 -161q-25 -43 -37 -80l-16 -66l-4 -45l-4 -26l22 16l37 10l58 27q14 6 32 29l31 30l168 33l53 -149l-151 -64l-90 8q-41 0 -68 -10l-45 -8h-23l21 -19l18 -26 q20 -27 45 -43l86 -45l84 -144l-133 -96l-108 121q0 47 -11.5 85t-31.5 62l-21 33l-10 27l-12 -27l-19 -33q-29 -41 -45 -147l-108 -121l-133 96l84 144l49 24q20 10 32 23q33 20 50 41l20 26l19 19h-21l-49 8l-64 10l-92 -8z" />
<glyph unicode="+" d="M84 596v178h459v451h170v-451h458v-178h-456v-449h-174v449h-457z" />
<glyph unicode="," horiz-adv-x="471" d="M74 -319q49 27 73 53l23 22l25 33q39 59 38 107q0 29 -7 42t-72 50q-61 31 -62 104q0 51 37 92t90 41q66 0 114 -63.5t48 -157.5q0 -90 -32 -161.5t-66 -108.5q-31 -37 -62 -62l-84 -63z" />
<glyph unicode="-" horiz-adv-x="806" d="M104 598v137h598v-137h-598z" />
<glyph unicode="." horiz-adv-x="438" d="M88 98q0 53 37 92t86 39q53 0 96 -36.5t43 -92.5q0 -47 -38 -87t-91 -40t-94 35q-39 39 -39 90z" />
<glyph unicode="/" horiz-adv-x="1144" d="M16 -233l979 2000h133l-983 -2000h-129z" />
<glyph unicode="0" d="M90 735q0 350 148.5 566.5t390.5 216.5q240 0 389 -217.5t149 -565.5q0 -350 -149.5 -567t-388.5 -217q-240 0 -389.5 217t-149.5 567zM303 733q0 -301 86 -480t238 -179q154 0 239.5 172t85.5 489q0 305 -86 483.5t-237 178.5q-154 0 -240 -173.5t-86 -490.5z" />
<glyph unicode="1" d="M252 1192v94q162 14 222.5 49t86 68t64.5 115h120l-6 -70l4 -160v-885l2 -120q0 -63 12.5 -103.5t36 -57t70.5 -24.5l101 -8h41v-90h-730v86l89 2l81 10q49 6 77 46t28 145l2 110v809z" />
<glyph unicode="2" d="M135 0v80q53 92 105 168l98 129l96 115l113 116q186 193 252 312q59 94 59 202q0 119 -68.5 198t-183.5 79q-123 0 -213 -96l-59 -95l-21 -63l-24 -98h-94v444q72 -18 110 -18l62 6l110 22l78 12l78 5q199 0 321.5 -109t122.5 -287q0 -123 -59.5 -230.5t-194.5 -225.5 l-168 -154q-156 -143 -196 -199l-68 -90l-39 -61l47 8l74 -2h191h32h27q94 0 119 8q41 6 86 45q45 35 69.5 79t49.5 138h90v-458l-78 12l-53 4l-195 4h-676z" />
<glyph unicode="3" d="M154 90v348h90q25 -156 111.5 -246t213.5 -90q129 0 211 94.5t82 247.5q0 162 -91 253t-257 91h-76v121q119 12 248 73.5t129 223.5q0 86 -59 140q-55 55 -152 55q-104 0 -155.5 -44t-61.5 -65l-31 -51l-28 -65l-27 -99h-90v420l63 -14l50 -4l73 8l107 20l71 11l68 4 q168 0 267.5 -84t99.5 -221q0 -176 -95 -234l-98 -53l-110 -49l90 -21q23 -6 149.5 -61.5t126.5 -337.5q0 -211 -153.5 -355.5t-380.5 -144.5q-106 0 -193 27q-43 12 -84 33.5t-57.5 31.5t-50.5 37z" />
<glyph unicode="4" d="M100 381v129l494 731l108 160l46 76h149v-920v-35l-8 -30l22 8h35h209v-119h-205l-37 2l-30 10l12 -31l4 -34v-76q0 -104 37 -135t172 -31h45v-86h-721v88h29h59q63 0 86 10q109 18 109 158v74l2 30l12 33l-31 -12h-39h-559zM197 483l96 13l92 4h272h45l31 -13l-8 37v39 v457l4 100l2 51q0 20 8 48l11 45l12 51l-86 -174l-64 -103l-278 -420q-29 -45 -53 -69z" />
<glyph unicode="5" d="M121 94v346h92q12 -84 24.5 -130t77 -131t222.5 -85q141 0 227 107.5t86 285.5q0 172 -81 273.5t-228 101.5q-41 0 -52 -4q-23 0 -61 -16q-43 -12 -74.5 -30.5t-87.5 -66.5l-110 56l16 96l14 107l27 229l10 102l4 82v60h486l106 2q31 0 62 43h73v-211h-583l-35 -273 l-6 -53l-11 -59q55 39 132 71q29 8 68.5 14.5t76.5 6.5q203 0 332 -136.5t129 -355.5q0 -244 -158 -403.5t-397 -159.5h-43h-29l-41 6q-16 0 -70 19q-61 12 -96 32.5t-48 29.5t-54 44z" />
<glyph unicode="6" d="M111 702q0 356 165.5 583.5t423.5 227.5h60.5t52.5 -4q25 0 53 -6q31 -10 45 -12l58 -14l57 -7q27 0 39 3.5t35 13.5v-443h-94q-25 160 -107 254.5t-197 94.5q-166 0 -274 -195q-53 -98 -79.5 -225t-26.5 -281q0 -276 100 -445t268 -169q123 0 204 99t81 261 q0 158 -81 260.5t-210 102.5q-57 0 -111 -21q-35 -16 -63 -39q-20 -16 -72 -69l-82 73q49 68 83 95.5t118 70.5t180 43q190 0 313.5 -135t123.5 -344q0 -219 -140.5 -370.5t-355.5 -151.5q-256 0 -411.5 209t-155.5 540z" />
<glyph unicode="7" d="M182 1047v444l150 -16l198 2h574v-91l-51 -88l-105 -190l-49 -107l-61 -143q-61 -150 -110.5 -336t-49.5 -309q0 -76 27.5 -95.5t64.5 -25.5l102 -4v-88h-600v88h17l61 6q23 6 42.5 20.5t35.5 47.5l29 86q20 76 43 143q35 92 53 148q88 242 158 393q82 172 118 235l58 95 l43 61l-53 -16l-103 -2h-207q-125 0 -180 -29q-25 -18 -51 -51q-23 -33 -37 -72l-31 -106h-86z" />
<glyph unicode="8" d="M119 385q0 88 32.5 165t84.5 120l81 65l117 72q-74 35 -113.5 66.5t-66.5 70.5q-59 84 -59 195q0 166 122.5 270t317.5 104q184 0 306 -99t122 -259q0 -141 -76 -211q-18 -16 -47 -37q-37 -29 -66 -47l-83 -43q96 -43 224 -124t128 -302q0 -190 -145.5 -315t-376.5 -125 q-223 0 -362.5 117.5t-139.5 316.5zM309 389q0 -135 88 -223t224 -88q131 0 216 84t85 211q0 139 -76 195.5t-146 97.5l-135 67q-76 -43 -131 -86q-37 -27 -81 -93.5t-44 -164.5zM383 1171q0 -70 37 -124q37 -45 65 -72l99 -55l82 -41q106 72 157 135q47 63 47 137 q0 104 -74.5 173t-177.5 69q-98 0 -169 -62q-66 -61 -66 -160z" />
<glyph unicode="9" d="M76 1010q0 221 141 368.5t358 147.5q258 0 416 -206t158 -544q0 -373 -164 -593t-440 -220q-92 0 -142 17l-55 14q-27 6 -49 20q-39 18 -127 76v346h90q12 -100 47 -171.5t107 -127.5q72 -49 155 -49q162 0 263.5 186.5t101.5 499.5q0 276 -105.5 451.5t-273.5 175.5 q-125 0 -204 -94.5t-79 -249.5q0 -164 84 -273.5t211 -109.5q86 0 140 39l65 53l43 47l86 -74l-47 -59q-18 -25 -98 -92q-74 -68 -244 -68q-188 0 -313 141.5t-125 348.5z" />
<glyph unicode=":" horiz-adv-x="557" d="M147 98q0 57 35 94t86 37q53 0 96.5 -36.5t43.5 -92.5q0 -47 -38 -87t-89 -40q-55 0 -94.5 35t-39.5 90zM147 973q0 57 35 98t84 41q59 0 101 -41q43 -37 43 -96q0 -49 -39 -85t-90 -36q-49 0 -88 30.5t-46 88.5z" />
<glyph unicode=";" horiz-adv-x="561" d="M117 -319q51 27 73 53q30 24 50 55q37 49 36 107q0 53 -47 73q-92 49 -92 123q0 51 37 92t90 41q66 0 114 -63.5t48 -157.5l-6 -82q-6 -35 -21 -63l-24 -49q-6 -23 -19 -37l-45 -60q-31 -37 -129 -104zM156 977q0 57 34.5 96t83.5 39q55 0 96.5 -38t41.5 -95 q0 -45 -36 -84t-87 -39q-55 0 -94 35t-39 86z" />
<glyph unicode="&#x3c;" horiz-adv-x="485" d="M59 557l244 455h123l-174 -451l166 -457h-115z" />
<glyph unicode="=" d="M88 412v182h1079v-182h-1079zM88 774v182h1079v-182h-1079z" />
<glyph unicode="&#x3e;" horiz-adv-x="485" d="M59 104l174 451l-167 457h116l244 -457l-244 -451h-123z" />
<glyph unicode="?" horiz-adv-x="974" d="M74 1077v426l53 -14l45 -4l39 2q23 0 41 8l84 16l65 11l74 4q190 0 316.5 -118t126.5 -306q0 -129 -80 -247t-205 -167l-158 -55q-78 -25 -106 -62q-20 -37 -21 -131l-4 -94h-129v447l102 10q66 6 122.5 24.5t163 73.5t106.5 238q0 111 -68 184.5t-176 73.5 q-121 0 -197 -82l-45 -70l-43 -119l-14 -49h-92zM158 98q0 57 34.5 94t83.5 37q55 0 98.5 -36.5t43.5 -92.5q0 -47 -38 -87t-91 -40q-57 0 -94 36t-37 89z" />
<glyph unicode="@" horiz-adv-x="1708" d="M117 735q0 127 36.5 245t122.5 236.5t215.5 192.5t221.5 86t137 12q270 0 445 -180t175 -457q0 -63 -19 -195t-111.5 -246t-159.5 -128l-82 -8q-80 0 -131 53q-43 43 -43 127q-12 -45 -41 -74q-74 -86 -170 -86q-53 0 -151.5 47.5t-98.5 339.5l8 74q18 137 72 227 q49 98 130 154.5t154 56.5q115 0 172 -112l11 -23l18 127l98 -2l-79 -446l-29 -185l-4 -30v-25q0 -39 15 -90t83 -51l39 8q25 10 47 29l25 24l37 41q29 37 65 117q25 70 37 145l10 129q0 246 -142.5 398.5t-371.5 152.5q-55 0 -85 -4t-105 -18q-137 -18 -289 -212t-152 -450 q0 -104 40 -260t205 -290t366 -134q86 0 161.5 18.5t153.5 71.5l102 74q59 55 115 115l47 -54l-53 -59q-121 -125 -257 -184.5t-280 -59.5q-272 0 -469.5 183.5t-219 356.5t-21.5 222zM571 594l7 -72q6 -32 20 -57q35 -74 119 -74q53 0 89 32t56 71l37 86l29 92l20 94l4 22 l13 84l6 76q0 74 -45 125t-101 51q-74 0 -127 -65q-39 -51 -77 -148l-35 -131l-13 -92z" />
<glyph unicode="A" horiz-adv-x="1527" d="M-16 0v88q55 0 80.5 12.5t46.5 32.5l34 41l27 51l49 127l303 776l29 93q12 47 12 69q0 92 -108 92h-23v95h451l10 -107q6 -43 49 -141l342 -891q61 -164 102.5 -207t133.5 -43v-88h-617v90h72q33 0 76 23q45 18 45 80q0 35 -11 65l-16 53l-22 49l-70 189h-514l-76 -193 q-39 -111 -39 -155q0 -111 137 -111h35v-90h-538zM508 676h426l-158 428l-37 113l-8 100l-20 -2l-2 -45l-7 -47l-43 -125z" />
<glyph unicode="B" horiz-adv-x="1374" d="M59 1382v95h643l121 -2q55 0 97 -11q45 -6 167 -73q123 -61 123 -261q0 -240 -276 -319q115 -25 240.5 -107.5t125.5 -287.5q0 -213 -121.5 -296t-201.5 -104q-37 -8 -90 -12t-139 -4h-685v88q123 0 157 46t34 210v776v25q0 78 -6 116.5t-41 79.5q-31 43 -125 43z M459 840h231q141 0 220 70.5t79 197.5q0 113 -79 180.5t-236 67.5h-215v-516zM461 360q0 -90 6 -128.5t37 -69.5q59 -47 194 -47q252 0 315.5 116.5t63.5 196.5q0 141 -93 215t-273 74h-250v-357z" />
<glyph unicode="C" horiz-adv-x="1425" d="M104 731q0 360 195 575.5t528 215.5l60 -2q31 0 104 -15l119 -22l47 -6l49 -2l72 6l59 12v-436h-88q-37 104 -65 145q-25 45 -74 87t-141 81q-92 33 -170 33q-211 0 -339 -185.5t-128 -490.5q0 -287 129 -468t348 -181q209 0 294 117.5t142 250.5h92v-354l-75 -31 q-137 -55 -240.5 -79.5t-210.5 -24.5q-326 0 -516.5 209t-190.5 565z" />
<glyph unicode="D" horiz-adv-x="1595" d="M59 0v88q66 0 101 12.5t54 45t32 69.5q6 35 6 123v801q0 141 -37 192t-156 51v95h535q221 0 323.5 -18.5t245 -102.5t236.5 -250t94 -367q0 -188 -84 -351t-214 -251t-235.5 -112.5t-291.5 -24.5h-609zM459 350q0 -98 6 -131t31 -57q20 -16 77 -35q25 -6 55.5 -10 t71.5 -4q240 0 402 149.5t162 472.5q0 158 -54.5 290t-140.5 200.5t-180 97.5q-100 27 -236 27h-194v-1000z" />
<glyph unicode="E" horiz-adv-x="1335" d="M59 1384v93h830h22h101q37 6 53 8l156 18v-446h-91q-8 51 -15 78.5t-25 62.5q-27 57 -69 95t-91 51.5t-164 13.5h-309v-514h223q135 0 189.5 43t54.5 170h92v-570h-90l-8 60q0 23 -11 45q-6 27 -33.5 62.5t-66.5 50t-139 14.5h-209v-367q0 -90 6 -121.5t35 -62.5 q20 -16 73 -33q61 -14 142 -14q229 0 308 53t99 90l31 74l29 104h94v-460l-133 16l-187 2h-895v92h13q63 0 89.5 8.5t48 35t32.5 63.5l4 147v774v70v29v20q-4 14 -5 32.5t-21.5 48.5t-60.5 47t-102 17z" />
<glyph unicode="F" horiz-adv-x="1236" d="M59 0v92q119 0 149 42t38 71l4 141v778v115q0 49 -23.5 79t-62.5 46q-33 10 -103 20v93h865l145 2l82 6l70 10v-438h-95q-2 18 -4 36.5t-6 24.5l-12 33q-10 35 -39 82t-72 76q-16 12 -39.5 22t-40.5 12l-69 9l-101 2h-288v-514h221h61q31 0 63 7t77 47t45 153h92v-562 h-94q0 74 -7.5 93.5t-18.5 39t-26 35.5q-25 37 -63.5 49.5t-130.5 12.5h-217v-367q0 -119 7 -150.5t52 -64.5l27 -16l43 -19l59 -10h55v-88h-643z" />
<glyph unicode="G" horiz-adv-x="1568" d="M104 748q0 346 195 567t504 221q123 0 255 -25.5t161 -25.5l61 6l61 12v-446h-92q-18 72 -35.5 108.5t-103.5 143t-303 106.5q-209 0 -342 -180t-133 -469q0 -293 139 -483.5t356 -190.5q141 0 222 62.5t81 171.5v63q0 70 -8 96q-6 31 -32.5 56.5t-71.5 36.5l-62 8l-26 4 l-51 2v84h632v-90q-96 0 -139 -49q-37 -49 -37 -183v-248l-139 -55q-213 -80 -389 -80q-319 0 -511 212t-192 565z" />
<glyph unicode="H" horiz-adv-x="1576" d="M59 0v86q106 0 146 39q29 33 41 76q6 35 6 137v782v66v39l-6 39q0 16 -25 51q-36 67 -158 67h-4v95h592v-93q-49 0 -61 -4q-20 0 -47 -12t-56 -51q-18 -35 -24 -66l-4 -133v-278h661v278v64v39l-6 39q0 18 -33 69q-29 55 -155 55v93h594v-95q-70 0 -99.5 -13t-55.5 -47 t-34 -67.5t-8 -134.5v-782q0 -98 6 -134t28.5 -63.5t58.5 -41t104 -13.5v-86h-596v88h8q63 0 90 11.5t57 41.5q25 31 30 59.5t7 55.5t2 80v383h-659v-383q0 -88 6 -121t37 -82q33 -45 145 -45h8v-88h-596z" />
<glyph unicode="I" horiz-adv-x="708" d="M29 0v90h22h33q18 0 39 4l31 6q37 10 58 35t30 70l8 149v764l-2 131q0 27 -10 45q-6 20 -45 56q-34 36 -155 36h-7v91h649v-88q-137 0 -182 -52q-41 -51 -41 -215v-778q0 -102 6 -142t47 -77t143 -37h25v-88h-649z" />
<glyph unicode="J" horiz-adv-x="720" d="M-147 -125h96q10 -102 59 -162.5t125 -60.5q55 0 101.5 46t46.5 105l-2 13l-15 127l-2 116v1067v25q0 86 -8 117q-6 37 -30.5 61.5t-67.5 38.5t-111 14v95h617v-95q-63 0 -101.5 -12t-62.5 -39q-18 -25 -24.5 -64.5t-6.5 -136.5v-1054q0 -207 -53.5 -390.5t-370.5 -183.5 q-57 0 -92 6l-43 11q-12 0 -55 18v338z" />
<glyph unicode="K" horiz-adv-x="1419" d="M59 0v90q115 0 154 53q39 59 39 207v778q0 150 -36 202t-157 52v95h598v-95q-113 0 -149 -43q-29 -39 -41 -77q-4 -20 -6 -48t-2 -90v-368l409 418q29 29 44.5 45t37 47.5t21.5 56.5q0 63 -119 63h-41v91h559v-95q-51 -6 -76 -20l-59 -39l-35 -27l-39 -36l-123 -119 l-239 -238l372 -600l64 -96l63 -82q25 -23 107 -39v-86h-320l-430 762l-196 -193v-235v-74l6 -65q6 -31 39 -64q29 -25 63 -37q23 -6 43.5 -8t65.5 -2v-84h-617z" />
<glyph unicode="L" horiz-adv-x="1208" d="M37 0v90q139 0 178 49t39 205v780v25q0 78 -6 111.5t-32 65.5t-57.5 45t-99.5 13v93h635v-88q-80 0 -121 -13.5t-73 -46.5q-25 -31 -31 -63l-8 -62l-2 -86v-764q0 -106 6 -131.5t49 -66.5q45 -35 197 -35q170 0 240.5 46t90.5 87l31 74l29 112h94v-460l-141 16l-154 4 h-864z" />
<glyph unicode="M" horiz-adv-x="2078" d="M16 0v90q117 0 165 59.5t48 212.5l50 762l2 39q0 106 -42 161.5t-141 55.5v97h518l9 -88q0 -20 22 -68l27 -68l291 -741q55 -139 55 -244l-4 -82l22 9l2 81v28.5t7.5 45.5t56.5 154l301 749l51 138l8 86h523v-91q-96 0 -146 -49q-43 -49 -43 -157v-72l39 -756 q0 -143 53.5 -202.5t173.5 -59.5v-90h-653v90q127 0 172 45t45 174l-2 53l-37 779l-2 51l2 49l13 64h-17l-358 -904l-51 -131l-39 -123l-27 -145l-203 -45l-12 102l-12 52l-19 63l-20 62q-20 70 -60 157l-290 758l-33 90l-17 59h-14l-41 -942l-2 -28q0 -129 49 -184.5 t170 -55.5v-90h-590z" />
<glyph unicode="N" horiz-adv-x="1613" d="M59 0v90q59 0 93 12.5t59 43t31 68.5t6 136v776v115q0 51 -23 80q-16 29 -55 46t-100 17v93h454l56 -142l84 -131l436 -663q31 -43 63 -109l43 -115l21 -67l8 8l-12 86l-11 111l-6 118v564q0 156 -36.5 204t-174.5 48v88h561v-91q-113 0 -157 -51q-39 -51 -39 -211v-786 q0 -147 24 -336l-186 -39q-39 115 -65 156q-18 39 -99 162l-516 774l-63 98l-29 64l-25 92l-24 -4l12 -86l8 -91l4 -90v-704q0 -96 9.5 -130t49.5 -75t150 -41v-88h-551z" />
<glyph unicode="O" horiz-adv-x="1630" d="M104 733q0 342 197 561t514 219q309 0 511 -217t202 -563q0 -344 -197.5 -563t-515.5 -219q-313 0 -512 217t-199 565zM332 733q0 -281 136 -468t347 -187q209 0 346 184t137 471q0 283 -135 469.5t-348 186.5q-209 0 -346 -182.5t-137 -473.5z" />
<glyph unicode="P" horiz-adv-x="1275" d="M51 0v92q115 0 158 49q39 51 39 199v782v76v43l-6 37q0 14 -21.5 47t-56.5 46t-103 13v93h633q129 0 195.5 -12.5t212 -92.5t145.5 -325q0 -190 -137 -308t-371 -118l-110 6l-92 10l-82 12v-297q0 -104 6 -144t37 -69l26 -20l41 -21q37 -12 117 -12v-86h-631zM455 776 l135 -26l96 -7q152 0 242 84t90 222q0 154 -100.5 230.5t-294.5 76.5h-168v-580z" />
<glyph unicode="Q" horiz-adv-x="1622" d="M102 709q0 344 203 577.5t510 233.5t506 -218.5t199 -562.5q0 -356 -148.5 -511.5t-243.5 -200.5q-76 -33 -270 -70l72 -47l125 -82l86 -55l65 -37l33 -15l49 -12l55 -10l60 -2q55 0 176 14l23 -88l-490 -127l-172 195l-125 129q-68 68 -110 98l-39 27l-50 26l-63 33 q-139 74 -244.5 181.5t-156 233.5t-50.5 290zM338 719q0 -274 129 -455.5t342 -181.5q209 0 344 184.5t135 472.5q0 283 -131 469.5t-334 186.5q-207 0 -346 -190.5t-139 -485.5z" />
<glyph unicode="R" horiz-adv-x="1345" d="M59 0v90q63 0 99.5 12.5t55.5 42t32 70.5q6 37 6 129v791v61v27q0 12 -4 37.5t-34 74.5t-153 49v93h682q106 0 167 -7.5t139 -37.5q74 -25 135 -125q12 -20 26 -50q8 -18 18.5 -47.5t14.5 -54.5t4 -59q0 -145 -98 -253t-268 -138l231 -386l53 -90q18 -31 37 -56.5 t37 -45.5q23 -18 94 -41v-86h-295l-59 127l-74 129l-252 434h-51l-65 4l-78 8v-366q0 -102 6 -135t33.5 -58.5t66.5 -44.5q45 -10 111 -10v-88h-617zM459 823l116 -8l64 -2q387 0 387 279q0 72 -29.5 128t-105.5 99q-37 20 -89 30.5t-128 10.5h-215v-537z" />
<glyph unicode="S" horiz-adv-x="1165" d="M82 -20v454h92q25 -119 53.5 -172t108.5 -121q78 -61 225 -61q127 0 210 74.5t83 201.5q0 68 -24.5 119t-69.5 86l-94 53l-164 80l-152 74q-16 8 -49 30.5t-90 65.5q-106 82 -107 256q0 166 128 278.5t325 112.5l88 -2l39 -6l86 -22l68 -13l51 -4q29 0 92 15l29 6v-436 h-99q-23 106 -45 155q-18 47 -61 87t-107.5 66.5t-132.5 26.5q-106 0 -177 -63.5t-71 -157.5q0 -61 27 -100q12 -31 53 -59l68 -52l182 -88q150 -70 289 -165t139 -316q0 -190 -136 -314t-345 -124l-102 6l-56 6l-59 14l-113 25l-76 6q-45 0 -106 -22z" />
<glyph unicode="T" horiz-adv-x="1142" d="M-16 1057v440l149 -16l160 -4h551h53h51l29 4q45 0 180 20v-444h-94q-12 63 -31 114l-18 50l-35 63q-37 72 -213 72h-92v-1010q0 -109 6 -147.5t38 -64t73 -40.5l112 -8v-86h-667v90h20q113 0 146.5 30t50.5 81q12 49 12 137v1018h-90q-139 0 -200.5 -61.5t-96.5 -237.5 h-94z" />
<glyph unicode="U" horiz-adv-x="1611" d="M66 1389v88h606v-88q-125 0 -170 -52q-41 -51 -41 -202v-611q0 -113 12 -167t88 -149t268 -95q201 0 286 117.5t85 281.5v633q0 147 -36 195.5t-158 48.5v88h555v-91q-123 0 -164 -53t-41 -209v-624q0 -254 -143.5 -398.5t-397.5 -144.5q-274 0 -417.5 147.5 t-143.5 380.5v654v53v45l-4 23q0 39 -21.5 69.5t-60.5 45t-102 14.5z" />
<glyph unicode="V" horiz-adv-x="1540" d="M0 1384v93h616v-93q-100 0 -143 -28.5t-43 -91.5q0 -23 19 -97l36 -110l242 -658l41 -137l27 -119l20 95l21 69l20 55l21 56l239 659q57 172 58 207q0 100 -138 100h-32v93h536v-91q-82 0 -139 -63q-33 -45 -121 -254l-313 -797l-52 -145l-26 -129l-221 -43l-9 35l-14 41 l-20 78l-56 145l-313 819q-6 18 -12 34.5t-17 39.5l-37 84q-18 47 -45.5 78.5t-60.5 48.5q-29 18 -84 26z" />
<glyph unicode="W" horiz-adv-x="2140" d="M0 1389v88h627v-95q-201 0 -201 -155q0 -66 37 -213l139 -559l23 -99l12 -82l10 -114l6 2l11 102q12 80 26 119l29 90l211 686l41 148l24 163l174 43l43 -161l43 -144l230 -716l14 -52l23 -86l14 -88l4 -110l8 2l11 121l18 96l29 139l137 553l14 78l6 74q0 86 -45 124.5 t-153 38.5v95h575v-101q-98 0 -133 -41q-16 -20 -25.5 -35.5t-21.5 -44.5l-51 -180l-205 -764l-39 -149l-16 -76l-15 -94l-225 -29q-12 109 -31 180q-12 70 -32 127l-216 650l-40 153q-12 66 -13 164l-2 -55l-12 -62q0 -35 -10 -57l-11 -33l-28 -106l-211 -660l-37 -121 l-29 -147l-227 -29l-27 129l-12 60l-22 80l-234 886q-29 111 -45 152q-12 43 -31.5 62.5t-52.5 31.5z" />
<glyph unicode="X" horiz-adv-x="1484" d="M0 0v86q74 8 114 43t150 182l342 486l-282 385q-76 106 -125 147q-43 41 -119 53v95h606v-95h-47q-127 0 -127 -82q0 -41 78 -145l139 -188l29 -39l18 -31l17 29l36 51l125 170l50 80q18 39 24 65q0 55 -43 72l-72 14l-57 6v93h561v-95l-57 -14q-33 -12 -60 -33l-83 -98 l-89 -102l-266 -344l340 -465l74 -99l35 -45l37 -37q35 -31 61 -43l76 -18v-84h-649v84l55 4l72 18q55 18 55 82q0 43 -92 177l-187 247l-24 39l-23 33l-16 -35l-31 -49l-186 -289l-27 -43l-31 -51l-4 -33q0 -51 43 -75l62 -21l73 -4v-84h-575z" />
<glyph unicode="Y" horiz-adv-x="1241" d="M-16 1384v93h518v-91q-70 0 -103.5 -19t-33.5 -60q0 -27 10 -54l53 -100l158 -281l32 -57l7 -29l4 -30l6 2l16 55l37 68l139 262l41 74l15 34l6 37q0 51 -34 73.5t-118 22.5v93h518v-91q-70 -18 -114 -57q-31 -27 -125 -178l-314 -514v-287q0 -104 6.5 -137t30.5 -70 q23 -29 68 -45l63 -10h56v-88h-652v90q137 0 180.5 46t43.5 210v293l-316 539l-55 98l-18 29l-31 32q-31 31 -94 47z" />
<glyph unicode="Z" horiz-adv-x="1212" d="M45 0v94l743 1206l23 33l18 27l-32 -2h-49l-226 -2h-61.5t-63.5 -8q-47 -6 -73 -29q-33 -18 -70 -66l-25 -41l-16 -38l-20 -70l-17 -57h-94v450l174 -16l150 -4h679v-88l-753 -1217l-23 -35l-14 -20l65 4h244q90 0 147.5 7t112.5 34q57 18 103 76q41 45 77 202h97v-463 l-146 19l-219 4h-731z" />
<glyph unicode="[" horiz-adv-x="512" d="M176 -332v2251h395v-123l-49 -2h-45q-25 0 -39 -4q-23 0 -42 -19.5t-29 -54.5l-5 -127v-1591q0 -139 25 -175t139 -36h45v-119h-395z" />
<glyph unicode="\" horiz-adv-x="632" d="M109 1475h110l258 -1475h-110z" />
<glyph unicode="]" horiz-adv-x="512" d="M-59 -209h49q66 0 88 6t41 25q18 14 24 49l4 125v1593q0 141 -25.5 175t-133.5 34h-45v121h391v-2251h-393v123z" />
<glyph unicode="^" horiz-adv-x="573" d="M16 1184l148 299h244l149 -299h-121l-153 174l-150 -174h-117z" />
<glyph unicode="_" horiz-adv-x="1032" d="M109 0h737v-51h-737v51z" />
<glyph unicode="`" horiz-adv-x="434" d="M16 1485h211l119 -303h-113z" />
<glyph unicode="a" horiz-adv-x="1198" d="M76 262q0 123 80 219.5t183 132t187 52.5l133 20l129 8v37q0 274 -243 275q-109 0 -170 -50q-53 -47 -82 -98q-20 -43 -47 -139h-90v377l51 -15l47 -4l63 6l56 11l139 22l84 6q63 0 135 -18.5t133.5 -56t91.5 -103.5q27 -70 27 -180v-412v-84l2 -65q2 -23 22.5 -54.5 t55.5 -50.5q31 -12 102 -12v-86h-336l-18 158l-80 -78q-141 -117 -317 -117q-152 0 -245 80t-93 219zM283 285q0 -74 53 -121q23 -16 61 -33q37 -12 82 -12q176 0 230.5 99t68.5 157q8 49 9 84t1 55v61l-73 -2q-37 0 -64 -8l-96 -22l-68 -23l-110 -49q-94 -43 -94 -186z" />
<glyph unicode="b" horiz-adv-x="1359" d="M37 1620v94l385 39l-2 -67l-2 -74l-2 -90l-2 -66v-500q59 74 152 119t202 45q213 0 358.5 -160.5t145.5 -404.5q0 -260 -148.5 -426t-392.5 -166q-96 0 -188 31l-78 26l-66 11q-31 0 -56.5 -12.5t-59.5 -53.5h-90l26 180l4 207v1034v25q0 82 -8 115q-6 43 -35.5 68.5 t-116.5 25.5h-26zM418 403q0 -141 84 -231t217 -90q150 0 243 126t93 337q0 201 -87 321.5t-233 120.5q-139 0 -229 -110q-43 -53 -65.5 -123t-22.5 -156v-195z" />
<glyph unicode="c" horiz-adv-x="1107" d="M88 526q0 258 146.5 428t369.5 170h43q29 0 45 -4q33 0 92 -20l64 -15l29 -6l32 -2q39 0 107 31v-383h-88l-15 59q-6 37 -22 64q-12 33 -47 78q-80 96 -211 96q-154 0 -252 -128t-98 -331t101 -333t259 -130q70 0 130.5 21.5t111.5 54.5t121 94l71 -75q-78 -84 -133 -127 q-27 -18 -55 -35q-16 -10 -62 -31q-27 -12 -53 -18l-72 -19q-45 -8 -65.5 -9t-32.5 -1q-219 0 -367.5 160.5t-148.5 410.5z" />
<glyph unicode="d" horiz-adv-x="1355" d="M88 539q0 252 145.5 415.5t368.5 163.5q94 0 148 -20q49 -14 96 -43q23 -6 43 -29l57 -43v416v24q0 39 -2 70t-10 58.5t-29.5 41t-56.5 23.5l-111 4v96l406 37l-6 -154l-9 -213v-1058q0 -90 6.5 -129t28.5 -62q14 -20 54 -41q37 -12 102 -12v-84h-340l-18 143 q-98 -98 -185 -141q-43 -20 -89 -30.5t-103 -10.5q-205 0 -350.5 167t-145.5 411zM303 545q0 -188 90 -309t234 -121q139 0 225 105.5t86 291.5v156q0 127 -92 225t-221 98q-137 0 -229.5 -125t-92.5 -321z" />
<glyph unicode="e" horiz-adv-x="1146" d="M88 524q0 260 145.5 426t370.5 166q98 0 178 -33q80 -29 143.5 -91t96.5 -134l22 -65q12 -37 19 -82l8 -80l2 -76h-772l2 -66q0 -78 23.5 -139t97.5 -152.5t223 -91.5q102 0 180 43.5t174 124.5l64 -73q-102 -123 -215 -180.5t-242 -57.5q-229 0 -374.5 154.5 t-145.5 406.5zM309 678h439q76 0 89 12t13 64q0 106 -69.5 180t-174.5 74q-135 0 -195.5 -85t-74.5 -126z" />
<glyph unicode="f" horiz-adv-x="667" d="M23 961v116h204v74q0 588 391 588q31 0 140 -25v-321h-84q-6 53 -15 73q-4 23 -10 33l-18 43q-18 49 -101 49q-61 0 -97 -48t-36 -128q0 -55 15 -135l10 -113v-90h270v-119h-272v-620l2 -111q0 -31 10 -51l29 -45q18 -25 57 -37l41 -8l57 -2h21v-84h-592v86 q98 0 129 30.5t43 84.5l6 63l2 98v599h-202z" />
<glyph unicode="g" horiz-adv-x="1136" d="M57 -168q0 70 32 114t128 105q-92 56 -92 156q0 53 27 98q23 53 147 139l-66 48q-51 41 -87.5 118.5t-36.5 151.5q0 168 128 272.5t320 104.5q57 0 72 -4q27 0 84 -15l118 -24l39 -2q72 0 115 24.5t80 100.5h84v-228h-213q86 -92 86 -237q0 -154 -121 -260.5t-307 -106.5 q-66 0 -152 14q-116 -43 -116 -121q0 -56 65 -81l78 -15l141 -4q133 0 176 -6l68 -12l74 -25q76 -27 124 -97.5t48 -158.5q0 -162 -139.5 -258t-376.5 -96q-240 0 -383.5 84t-143.5 221zM248 -127q0 -104 98 -165.5t272 -61.5q133 0 212 50t79 136q0 104 -112 135l-103 13 l-127 2q-76 0 -125 6l-57 8q-14 2 -29.5 4t-40.5 12q-68 -55 -67 -139zM311 756q0 -113 72 -186.5t180 -73.5q115 0 187 73q67 73 67 190q0 120 -69.5 195.5t-184.5 75.5q-109 0 -180.5 -77.5t-71.5 -196.5z" />
<glyph unicode="h" horiz-adv-x="1376" d="M37 0v88q115 0 149.5 47t34.5 203v1034q0 156 -31.5 202t-152.5 46v94l389 37l-2 -115l-2 -90l-6 -145v-457q84 86 172 131t196 45q170 0 250 -75.5t101 -147.5l14 -86l6 -119v-362v-88q0 -43 18.5 -86t108.5 -68v-88h-502v86h15q90 0 131 49q37 49 37 189v358v88 q-6 29 -10.5 56.5t-48.5 93t-169 65.5t-198 -74q-66 -72 -97 -161q-26 -91 -26 -218v-10v-194v-95l6 -40l14 -33l23 -35q27 -39 139 -39v-86h-559z" />
<glyph unicode="i" horiz-adv-x="643" d="M45 0v88q104 0 143 48t39 188v460q0 141 -27.5 166t-54 33t-100.5 8v92l385 39l-2 -88l-6 -207v-499q0 -84 6 -123t41 -79t137 -40v-86h-561zM209 1405q0 47 31 83t84 36q51 0 88 -35t37 -86t-32 -86t-87 -35q-51 0 -86 35t-35 88z" />
<glyph unicode="j" horiz-adv-x="569" d="M-117 -125h90q0 -55 8.5 -89t32.5 -67q41 -59 107 -59q59 0 94 47t35 135l-4 45l-19 144l-2 137v614q0 133 -32.5 172t-149.5 39v90l383 41l-4 -145l-2 -195v-612l-2 -152q0 -106 -15 -170l-24 -83q-16 -45 -22.5 -57.5t-30.5 -61.5q-61 -133 -291 -133h-29q-25 0 -39 4 l-84 20v336zM203 1401q0 51 35 88t84 37q51 0 85.5 -35t34.5 -86q0 -49 -31.5 -86t-80.5 -37t-88 35t-39 84z" />
<glyph unicode="k" horiz-adv-x="1218" d="M37 0v90q106 0 149 49q37 49 37 205v1010q0 184 -24.5 214.5t-59.5 43.5l-102 8v98l393 39v-71v-52l-4 -47l-8 -155v-824l274 236l47 47q37 35 37 59q0 43 -74 43h-38v84h464v-86l-57 -12q-12 0 -53 -33l-60 -49l-92 -72l-129 -106l301 -445l56 -81l45 -56q23 -23 39 -31 l61 -18v-88h-278l-37 78l-66 96l-274 422l-168 -135v-129q0 -150 40 -197t167 -47v-88h-586z" />
<glyph unicode="l" horiz-adv-x="638" d="M37 0v88q113 0 148.5 50t35.5 218v1035q0 145 -31.5 187t-140.5 42h-10v98l395 35l-6 -168l-10 -153v-1092q0 -154 31 -207q31 -47 147 -47v-86h-559z" />
<glyph unicode="m" horiz-adv-x="2080" d="M45 993v88l369 33l-6 -186q139 188 360 188q147 0 214 -49t83 -72q20 -23 43 -77l51 59l58 51q123 92 274 92q182 0 289 -125q45 -45 63 -110l10 -78l5 -119v-373v-69q0 -39 4 -57.5t23.5 -44t58.5 -44.5q35 -12 100 -12v-88h-563v90q53 0 79.5 6t51 31t37 69t12.5 123 v373l-2 58l-6 71q-6 41 -29 74q-20 37 -73.5 62.5t-108.5 25.5q-63 0 -117.5 -27.5t-101.5 -81.5q-39 -45 -66 -116q-20 -68 -20 -180v-252q0 -80 6 -111t36.5 -79t143.5 -48v-88h-555v88q104 0 141 49t37 191v358v25q0 84 -6 112l-18 45l-37 54q-43 55 -156 55l-63 -6 q-35 -8 -62 -23q-55 -25 -121.5 -103.5t-66.5 -283.5v-252q0 -125 33.5 -165t148.5 -56v-88h-549v90q100 0 137 48t37 169v484q0 123 -31.5 162.5t-146.5 39.5z" />
<glyph unicode="n" horiz-adv-x="1384" d="M37 0v88q111 0 147.5 55.5t36.5 190.5v463q0 119 -34.5 157.5t-139.5 38.5h-8v92l379 37l-6 -190q55 82 158.5 136t211.5 54q141 0 258 -85t117 -306v-387q0 -100 6 -139t25 -70q18 -25 53 -37t98 -12v-86h-563v90q113 0 150 49t37 217v361q0 117 -60.5 192.5 t-165.5 75.5q-133 0 -228 -111.5t-95 -277.5v-264q0 -152 33.5 -199t148.5 -47v-86h-559z" />
<glyph unicode="o" horiz-adv-x="1259" d="M88 541q0 252 150.5 414.5t390.5 162.5q236 0 389 -160.5t153 -416.5q0 -252 -148.5 -414t-389.5 -162q-240 0 -392.5 161t-152.5 415zM303 541q0 -205 91 -332t237 -127q141 0 233 129t92 332q0 205 -90 333t-235 128q-141 0 -234.5 -130t-93.5 -333z" />
<glyph unicode="p" horiz-adv-x="1357" d="M37 995v88l373 37l-17 -182q174 186 379 186q213 0 356.5 -164.5t143.5 -420.5q0 -250 -144.5 -413t-365.5 -163q-106 0 -206.5 43t-147.5 111l6 -92v-123q0 -172 35.5 -220.5t173.5 -48.5v-92h-584v94q113 0 147.5 47.5t34.5 196.5v862q0 164 -32.5 209t-151.5 45z M414 440q0 -145 90 -247.5t221 -102.5q147 0 240.5 127t93.5 330q0 188 -93.5 308t-236.5 120q-137 0 -226 -112t-89 -294v-129z" />
<glyph unicode="q" horiz-adv-x="1284" d="M88 535q0 256 153.5 420.5t405.5 164.5q74 0 129 -18l94 -29q55 -16 93 -16q59 0 108 67h98l-28 -166q-6 -55 -6 -174v-911q0 -131 36.5 -184.5t149.5 -53.5v-94h-584v97q127 0 167 45t40 182v172v47l12 55q-43 -76 -144 -125t-216 -49q-217 0 -362.5 161t-145.5 409z M301 545q0 -203 86 -325t238 -122q147 0 233 110.5t86 309.5v158q0 145 -84 237.5t-217 92.5q-152 0 -247 -129t-95 -332z" />
<glyph unicode="r" horiz-adv-x="843" d="M45 993v84l363 41l-7 -211q43 66 70 94.5t78 67.5q53 33 149 33h21h26q45 0 93 45v-422h-95q-12 111 -43.5 159t-99.5 48q-76 0 -119 -68.5t-57 -138.5l-10 -78l-4 -98v-213q0 -92 5 -119t12 -40t24 -32q25 -29 69 -47q43 -12 113 -12v-86h-586v86q111 0 144.5 49 t33.5 213v422q0 141 -25.5 183t-117.5 42z" />
<glyph unicode="s" horiz-adv-x="980" d="M66 -10v454h100q12 -90 22.5 -127.5t17.5 -55t25 -46.5q25 -47 101 -96q72 -41 149 -41q92 0 160 55t68 137q0 55 -33 88t-139 76l-103 35l-131 49q-37 16 -129 78.5t-92 216.5q0 135 103.5 224t263.5 89l53 -2q27 0 53 -8l109 -24l94 -15q16 0 35.5 3t58.5 20v-381h-96 q-41 289 -281 289q-86 0 -141 -44t-55 -120q0 -43 17 -67.5t62 -57.5q37 -20 162 -64l105 -34q282 -96 282 -314q0 -149 -118.5 -247.5t-309.5 -98.5q-84 0 -147 14l-103 25l-41 6l-41 2l-47 -6z" />
<glyph unicode="t" horiz-adv-x="684" d="M45 971v96q70 0 112 12.5t74.5 44t47.5 72.5l20 76l8 125h115v-320h262v-104h-264v-733q0 -49 6 -78t20 -45l29 -19l35 -6l65 -2h64h43v-94l-150 -27l-110 -8q-68 0 -116 25.5t-66 68.5q-14 57 -15 160v756h-180z" />
<glyph unicode="u" horiz-adv-x="1390" d="M45 999v84l383 35l-10 -129v-172v-444q0 -266 237 -267q139 0 227.5 111t88.5 303v242v24q0 92 -8 123q-6 37 -31 55.5t-60 28.5q-31 6 -108 6v84l405 33l-4 -133l-2 -174v-465v-78q0 -43 4 -67.5t22.5 -55t50.5 -43t106 -12.5v-88h-340l-17 168q-147 -203 -383 -203 q-178 0 -284 115q-96 96 -97 293v385v26q0 84 -6 122t-26 55q-18 20 -54 30z" />
<glyph unicode="v" horiz-adv-x="1114" d="M-16 999v78h528v-88h-43l-53 -8q-66 -16 -66 -102v-23l8 -33l27 -88l119 -379q18 -49 31 -104l28 -125l31 90l49 143l131 367q49 121 49 174q0 51 -28 68q-27 20 -107 20v88h440v-90q-66 -12 -92 -38.5t-61 -108.5l-47 -119l-207 -500l-78 -231l-203 -35q-10 55 -14 61 l-18 58l-33 108l-189 553l-24 72l-23 57q-16 45 -43.5 81t-111.5 54z" />
<glyph unicode="w" horiz-adv-x="1757" d="M0 987v90h512v-88l-37 -4q-63 -6 -92 -34.5t-29 -86.5q0 -39 8 -63l25 -96l74 -283l22 -100q12 -66 13 -152q25 115 39 149l43 111l159 383l56 135l38 129h142l39 -110l57 -127l162 -375q6 -14 20.5 -51t26.5 -76l43 -158l27 142l32 141l66 287l10 61l6 33l6 39 q0 55 -32.5 80.5t-118.5 25.5v88h440v-90q-59 -12 -94 -49q-14 -14 -35 -68l-33 -114l-145 -533l-35 -143l-20 -98l-170 -31l-39 123l-51 127l-185 426l-39 94l-32 108l-33 -98l-47 -115l-150 -366l-43 -100l-14 -44l-37 -122l-195 -33q0 94 -12 155l-33 113l-145 535 l-33 116l-12 39l-29 47q-18 31 -96 31z" />
<glyph unicode="x" horiz-adv-x="1193" d="M0 0v92q55 0 84 21l29 24l28 29l58 67l274 365l-184 233l-64 78l-35 37l-36 31l-76 18v82h502v-82h-23q-94 0 -94 -57q0 -37 31 -74l34 -45l74 -92l29 -35l8 -24l14 24l31 43l72 103q41 57 41 100q0 37 -31 49l-41 8l-41 6v76h436v-76l-55 -12l-39 -22l-43 -37l-82 -109 l-176 -241l240 -308q63 -82 122 -137q41 -35 107 -43v-92h-571v92l45 2q114 0 114 73q0 19 -12 48l-57 82l-111 141l-31 41l-18 33l-14 -29l-31 -45l-115 -162l-18 -32l-25 -45l-6 -27q0 -80 135 -80h15v-92h-494z" />
<glyph unicode="y" horiz-adv-x="1116" d="M-16 985v92h510v-82l-50 -6q-18 0 -61 -18q-43 -12 -43 -76q0 -16 15.5 -64.5t43.5 -113.5l150 -369l14 -49l15 -59l-3 -56l17 9q10 92 39 159l137 373q49 123 49 176q0 51 -29 68q-25 18 -116 30v78h458v-78q-57 -12 -90 -30q-16 -12 -47 -76l-49 -129l-340 -821 q-47 -123 -80 -183l-37 -57l-65 -90q-80 -104 -285 -105l-65 3q-16 0 -72 20v338h90l16 -68l29 -63q23 -45 98 -45q66 0 138 80l49 75l41 68l33 76l-328 776l-19 47q-16 41 -28 57l-37 62q-14 27 -39 39q-18 12 -59 12z" />
<glyph unicode="z" horiz-adv-x="1021" d="M66 0v82l552 842l17 26l18 23l-57 -6h-143q-121 0 -170.5 -51.5t-65.5 -88.5l-24 -112h-95v379l113 -15l154 -2h524v-84l-551 -835l-16 -33l-21 -23l29 4h37h94q100 0 154.5 12.5t95.5 47.5q41 31 77 100q31 66 43 170h97v-456l-101 10l-151 10h-610z" />
<glyph unicode="{" horiz-adv-x="661" d="M109 737q55 0 89.5 41.5t34.5 104.5v690q0 127 156 127h115v-64h-23q-74 0 -98 -24l-16 -37q-6 -25 -7 -66v-616q0 -57 -36 -105q-37 -41 -99 -51q49 -6 97 -49q39 -45 38 -106v-617q0 -80 21.5 -103.5t99.5 -23.5h23v-63h-115q-78 0 -117 32.5t-39 94.5v690 q0 98 -45 119q-6 4 -38.5 14t-40.5 12z" />
<glyph unicode="|" horiz-adv-x="354" d="M109 0v1475h110v-1475h-110z" />
<glyph unicode="}" horiz-adv-x="661" d="M109 -162h22q74 0 98 25l17 37q6 25 6 65v617q0 57 37 102t96 53q-53 6 -96 49q-37 43 -37 107v616q0 78 -22.5 102.5t-98.5 24.5h-22v64h114q154 0 154 -127v-690q0 -63 34.5 -104.5t92.5 -41.5q-33 -4 -80 -26q-47 -18 -47 -119v-690q0 -127 -154 -127h-114v63z" />
<glyph unicode="~" horiz-adv-x="628" d="M16 1626q0 88 47.5 143.5t120.5 55.5q35 0 62 -15l57 -28l53 -29l41 -22l39 -11q39 0 53 70l5 25h116l6 -41q0 -86 -50 -145.5t-128 -59.5q-39 0 -55 8l-64 35l-75 39l-45 14q-68 0 -68 -92h-113z" />
<glyph unicode="&#xa1;" horiz-adv-x="563" d="M147 1376q0 55 36 91t89 36q49 0 97 -37q39 -39 39 -90t-36 -91t-89 -40q-51 0 -93.5 37t-42.5 94zM186 -39l39 1182h121l98 -1137z" />
<glyph unicode="&#xa2;" horiz-adv-x="1107" d="M88 526q0 274 117 395t182.5 151t185.5 50v154h89v-156l69 -8l62 -14l69 -15l56 -6q37 0 98 31v-383h-88l-15 59q-6 33 -20 60q-12 37 -49 80q-31 43 -63.5 60t-121.5 44v-922h27h21q14 4 20 5l68 16q37 10 80 38t131 105l71 -75q-80 -86 -137 -132q-55 -39 -113.5 -63.5 t-167.5 -36.5l-2 -188h-88l2 188q-106 0 -168 25q-53 25 -184 141.5t-131 396.5zM285 555q0 -92 30.5 -182t73.5 -143.5t80 -75.5q35 -16 102 -39l2 905q-78 -25 -121.5 -53.5t-80.5 -83.5q-12 -20 -27.5 -59.5t-32.5 -88.5q-27 -100 -26 -180z" />
<glyph unicode="&#xa3;" horiz-adv-x="1282" d="M59 190q0 98 66 164q10 10 27.5 22.5t54.5 27t88 14.5q61 0 90 -10q37 -6 115 -52l51 -24q12 49 12 88q0 47 -14 102l-27 74q-18 47 -26 68q-16 33 -25 49h-295v125h246l-19 47l-24 59q-35 88 -35 174q0 178 111.5 289t302.5 111q61 0 110 -13l111 -26l41 -6q35 0 90 24 v-440h-98l-6 61q-2 20 -4.5 30.5t-12.5 31.5q-4 18 -18.5 47.5t-40.5 77.5q-47 90 -180 90q-84 0 -152 -70q-59 -70 -59 -170q0 -43 12 -92l49 -137l35 -88h473v-123h-424q37 -68 49 -117t12 -106q0 -61 -13 -107.5t-52 -126.5l55 -33l68 -30l92 -33q55 -16 92 -17h25 q12 0 28 5l62 26q41 18 61 43l64 76l84 -70l-74 -98l-35 -37l-45 -41q-51 -45 -108 -67q-14 -6 -50 -16.5t-73 -10.5t-52 4l-30 6q-43 6 -92 31l-78 37l-90 67l-29 -26l-53 -47l-37 -21l-55 -26q-61 -25 -117 -25q-98 0 -166 67.5t-68 167.5zM188 190q0 -41 31 -73.5 t86 -32.5q98 0 170 102l-37 35l-47 29l-55 29l-43 6q-47 0 -76 -26t-29 -69z" />
<glyph unicode="&#xa4;" horiz-adv-x="1011" d="M109 438l133 133q-59 76 -60 166q0 92 58 168l-131 125l14 17l12 16l15 14l16 15l133 -129q76 57 166 57q98 0 172 -55l129 129l18 -15q25 -18 43 -49l-133 -125q18 -27 39 -80l10 -43l5 -47q0 -92 -56 -166l133 -133l-14 -14l-12 -12l-19 -17l-16 -14l-129 133 q-68 -55 -168 -55q-88 0 -168 55l-133 -131q-31 25 -57 57zM274 737q0 -76 56.5 -134t134.5 -58q80 0 136 56t56 136t-57 136.5t-135 56.5q-80 0 -135.5 -55.5t-55.5 -137.5z" />
<glyph unicode="&#xa5;" horiz-adv-x="1241" d="M-16 1384v93h518v-91q-70 0 -103.5 -19t-33.5 -60q0 -27 10 -54l53 -100l158 -281l32 -57l7 -29l4 -30l6 2l16 55l37 68l139 262l41 74l15 34l6 37q0 51 -34 73.5t-118 22.5v93h518v-91q-76 -20 -109.5 -51.5t-129.5 -183.5l-221 -352h370v-115h-436l-27 -47l5 -31h458 v-114h-460l-3 -142v-22q0 -88 6.5 -120t30.5 -69q18 -20 68 -41l63 -10h56v-88h-652v90h76l33 8q35 10 62.5 32t38 58.5t11.5 55t1 28.5l2 74l2 143l-420 3l2 116h418l-2 31l-19 43h-399v119l326 -2l-224 379l-55 98l-18 29l-31 32q-31 31 -94 47z" />
<glyph unicode="&#xa7;" horiz-adv-x="1230" d="M88 580q0 227 238 319q-125 107 -125 254q0 152 117.5 253t302.5 101q100 0 203.5 -30.5t234.5 -104.5v-334h-88l-23 78q-31 106 -106.5 185t-210.5 79q-98 0 -168 -59t-70 -147q0 -63 38 -109.5t144 -93.5l107 -49l246 -119q217 -109 217 -309q0 -98 -56.5 -186.5 t-162.5 -139.5q160 -111 159 -293q0 -168 -127 -276.5t-323 -108.5h-29h-24q-18 4 -27 4q-35 0 -95.5 16.5t-97 27.5t-73.5 28l-123 49v334h92l23 -82q37 -104 129 -178t221 -74q109 0 180.5 65.5t71.5 163.5q0 106 -86 168l-62 41l-110 56l-170 79q-90 37 -146 70l-61 37 l-76 53q-84 61 -84 232zM266 610q0 -31 17.5 -64.5t46.5 -62.5l49 -32l43 -21l127 -57l133 -62l68 -28l65 -39q31 14 64 43l45 47l26 49q10 31 11 63q0 68 -44.5 111t-197.5 117l-129 61l-43 17l-64 34l-53 25q-98 -47 -131 -96l-27 -51q-6 -23 -6 -54z" />
<glyph unicode="&#xa8;" horiz-adv-x="518" d="M-47 1309q0 43 36 82t85 39q51 0 87 -35t36 -84q0 -53 -35 -90t-86 -37t-87 35.5t-36 89.5zM322 1311q0 47 37.5 83t84.5 36q45 0 82 -36t37 -87t-34.5 -87t-86.5 -36q-49 0 -84.5 38t-35.5 89z" />
<glyph unicode="&#xa9;" horiz-adv-x="1908" d="M119 739q0 317 223.5 540.5t540.5 223.5t540.5 -223t223.5 -541q0 -317 -223.5 -540.5t-540.5 -223.5t-540.5 223.5t-223.5 540.5zM209 739q0 -133 49.5 -257t149.5 -228q96 -96 219 -146.5t256 -50.5q125 0 249.5 49.5t221 146.5t148.5 227t52 261q0 137 -50 260 t-145 221.5t-221 148.5t-255 50t-253 -49t-221.5 -148.5t-148.5 -228.5t-51 -256zM395 721q0 94 46 221t176.5 216t291.5 89h58l100 -20q72 -12 182 -105l-53 -73q-86 78 -162 92l-119 14q-154 0 -266 -95t-133 -200l-16 -135q0 -178 120.5 -297t290.5 -119q123 0 228 66 l55 41l53 -74q-70 -57 -154.5 -91t-174.5 -34q-219 0 -371 148.5t-152 355.5z" />
<glyph unicode="&#xaa;" horiz-adv-x="983" d="M109 1147v37l14 84q12 70 103 149.5t206 79.5l43 -2q18 0 64 -14q74 -12 137 -125l10 -19l6 -12v150h109v-662h-111v160l-6 -17q-31 -74 -98.5 -116.5t-155.5 -42.5q-59 0 -169.5 44t-131.5 158zM131 610v101h670v-101h-670zM221 1147l4 -49q18 -100 92 -156 q70 -47 144 -47q63 0 132 48t87 116l14 92q0 51 -22 102l-21 39q-31 53 -83 81t-111 28q-92 0 -150.5 -61.5t-81.5 -147.5z" />
<glyph unicode="&#xab;" horiz-adv-x="776" d="M59 557l242 457h121l-170 -451l168 -459h-117zM354 557l244 457h121l-172 -451l168 -459h-115z" />
<glyph unicode="&#xac;" horiz-adv-x="1245" d="M109 737v111h933v-406h-98v295h-835z" />
<glyph unicode="&#xad;" horiz-adv-x="806" d="M104 598v137h598v-137h-598z" />
<glyph unicode="&#xae;" horiz-adv-x="1908" d="M119 739q0 317 223.5 540.5t540.5 223.5t540.5 -223t223.5 -541q0 -317 -223.5 -540.5t-540.5 -223.5t-540.5 223.5t-223.5 540.5zM209 739q0 -133 49.5 -257t149.5 -228q96 -96 219 -146.5t256 -50.5q125 0 249.5 49.5t221 146.5t148.5 227t52 261q0 137 -50 260 t-145 221.5t-221 148.5t-255 50t-253 -49t-221.5 -148.5t-148.5 -228.5t-51 -256zM655 254v989h209q145 0 214 -56.5t83 -121.5l10 -92q0 -104 -62 -173t-171 -81l-37 -2l318 -463h-123l-336 500v-500h-105zM760 782h84q223 0 223 185q0 92 -53 139q-49 49 -154 49h-100 v-373z" />
<glyph unicode="&#xb1;" horiz-adv-x="1216" d="M90 39v139h946v-139h-946zM90 539v139h404v250h139v-250h403v-139h-403v-250h-139v250h-404z" />
<glyph unicode="&#xb4;" horiz-adv-x="385" d="M90 1182l123 299h205l-225 -299h-103z" />
<glyph unicode="&#xb5;" horiz-adv-x="1275" d="M150 -285l4 119l4 182l-2 207l-4 195v502h188v-607q0 -145 28.5 -194t102.5 -49q113 0 192.5 165.5t79.5 417.5v267h189v-672q0 -92 18.5 -135t59.5 -43t64.5 42t23.5 126v28h43l2 -18v-27q0 -106 -48 -172.5t-137 -66.5q-98 0 -153 87t-55 265q-47 -182 -126 -267 t-198 -85q-88 0 -150 53q-55 55 -81 158l-2 -58q0 -135 62 -287.5t69 -189.5q0 -41 -22.5 -63.5t-63.5 -22.5q-45 0 -66.5 37t-21.5 106z" />
<glyph unicode="&#xb6;" horiz-adv-x="1302" d="M109 1092q0 152 110.5 267.5t267.5 115.5h609v-89h-609q-117 0 -202.5 -88t-85.5 -211q0 -115 86 -204q88 -84 202 -84h148v506h90v-1305h-90v711h-148q-152 0 -265 111.5t-113 269.5zM868 0v1305h90v-1305h-90z" />
<glyph unicode="&#xb8;" horiz-adv-x="509" d="M45 -375l43 92l107 -41q43 -12 77 -12q86 0 86 64q0 25 -26 49q-27 20 -60 20l-36 -2l-35 -6l-54 43l21 37l31 72l39 79h100l-55 -137l51 4q72 0 124 -50t52 -116q0 -70 -56.5 -118.5t-148.5 -48.5q-125 0 -260 71z" />
<glyph unicode="&#xba;" horiz-adv-x="985" d="M109 1151l6 68q25 129 120 208.5t218 79.5q74 0 189.5 -50t139.5 -163l21 -145l-2 -29l-13 -82q-12 -70 -83.5 -142.5t-131.5 -84.5l-79 -14l-41 -2q-33 0 -103.5 12t-140.5 87t-94 187zM121 610v101h670v-101h-670zM219 1151q0 -82 35 -139q31 -51 86 -88 q53 -29 117 -29q102 0 160.5 65.5t66.5 118.5l8 72q0 82 -35 135q-31 53 -85 86t-117 33q-94 0 -168 -74q-68 -74 -68 -180z" />
<glyph unicode="&#xbb;" horiz-adv-x="776" d="M59 104l170 449l-168 461h119l242 -457l-240 -453h-123zM354 104l170 449l-166 461h115l246 -457l-244 -453h-121z" />
<glyph unicode="&#xbf;" horiz-adv-x="974" d="M59 389q0 135 80 252t201 162l158 55q78 25 92 44.5t31 70.5l10 80v94h129v-447l-103 -10q-33 0 -65.5 -7t-63.5 -19q-35 -10 -56 -19.5t-68.5 -35t-92.5 -97.5t-45 -154q0 -121 65.5 -192.5t180.5 -71.5q80 0 158 49q68 49 94 131l27 91l18 49h92v-424l-55 12l-45 4h-33 l-47 -8l-84 -18q-66 -12 -137 -13q-188 0 -314.5 118t-126.5 304zM555 1382q0 49 38 87t95 38t93 -34.5t36 -88.5q0 -55 -34.5 -94t-84.5 -39q-53 0 -102 37q-41 37 -41 94z" />
<glyph unicode="&#xc0;" horiz-adv-x="1527" d="M-16 0v88q55 0 80.5 12.5t46.5 32.5l34 41l27 51l49 127l303 776l29 93q12 47 12 69q0 92 -108 92h-23v95h451l10 -107q6 -43 49 -141l342 -891q61 -164 102.5 -207t133.5 -43v-88h-617v90h72q33 0 76 23q45 18 45 80q0 35 -11 65l-16 53l-22 49l-70 189h-514l-76 -193 q-39 -111 -39 -155q0 -111 137 -111h35v-90h-538zM508 676h426l-158 428l-37 113l-8 100l-20 -2l-2 -45l-7 -47l-43 -125zM563 1911h211l119 -303h-113z" />
<glyph unicode="&#xc1;" horiz-adv-x="1527" d="M-16 0v88q55 0 80.5 12.5t46.5 32.5l34 41l27 51l49 127l303 776l29 93q12 47 12 69q0 92 -108 92h-23v95h451l10 -107q6 -43 49 -141l342 -891q61 -164 102.5 -207t133.5 -43v-88h-617v90h72q33 0 76 23q45 18 45 80q0 35 -11 65l-16 53l-22 49l-70 189h-514l-76 -193 q-39 -111 -39 -155q0 -111 137 -111h35v-90h-538zM508 676h426l-158 428l-37 113l-8 100l-20 -2l-2 -45l-7 -47l-43 -125zM661 1608l123 299h205l-225 -299h-103z" />
<glyph unicode="&#xc2;" horiz-adv-x="1527" d="M-16 0v88q55 0 80.5 12.5t46.5 32.5l34 41l27 51l49 127l303 776l29 93q12 47 12 69q0 92 -108 92h-23v95h451l10 -107q6 -43 49 -141l342 -891q61 -164 102.5 -207t133.5 -43v-88h-617v90h72q33 0 76 23q45 18 45 80q0 35 -11 65l-16 53l-22 49l-70 189h-514l-76 -193 q-39 -111 -39 -155q0 -111 137 -111h35v-90h-538zM493 1610l148 299h244l149 -299h-121l-153 174l-150 -174h-117zM508 676h426l-158 428l-37 113l-8 100l-20 -2l-2 -45l-7 -47l-43 -125z" />
<glyph unicode="&#xc3;" horiz-adv-x="1527" d="M-16 0v88q55 0 80.5 12.5t46.5 32.5l34 41l27 51l49 127l303 776l29 93q12 47 12 69q0 92 -108 92h-23v95h451l10 -107q6 -43 49 -141l342 -891q61 -164 102.5 -207t133.5 -43v-88h-617v90h72q33 0 76 23q45 18 45 80q0 35 -11 65l-16 53l-22 49l-70 189h-514l-76 -193 q-39 -111 -39 -155q0 -111 137 -111h35v-90h-538zM469 1626l2 70q1 24 9 49q12 45 55 82t92 37q31 0 62.5 -11.5t91.5 -52.5q59 -33 94 -39q68 0 67 88v17h117v-37l-8 -88q-6 -49 -52 -89t-102 -40q-39 0 -65 10l-45 23l-35 18l-33 18l-45 25l-35 10q-59 0 -59 -90h-111z M508 676h426l-158 428l-37 113l-8 100l-20 -2l-2 -45l-7 -47l-43 -125z" />
<glyph unicode="&#xc4;" horiz-adv-x="1527" d="M-16 0v88q55 0 80.5 12.5t46.5 32.5l34 41l27 51l49 127l303 776l29 93q12 47 12 69q0 92 -108 92h-23v95h451l10 -107q6 -43 49 -141l342 -891q61 -164 102.5 -207t133.5 -43v-88h-617v90h72q33 0 76 23q45 18 45 80q0 35 -11 65l-16 53l-22 49l-70 189h-514l-76 -193 q-39 -111 -39 -155q0 -111 137 -111h35v-90h-538zM371 1669q0 55 30.5 92t85.5 37q57 0 95.5 -34.5t38.5 -88.5q0 -51 -39 -91t-88 -40t-86 37t-37 88zM508 676h426l-158 428l-37 113l-8 100l-20 -2l-2 -45l-7 -47l-43 -125zM780 1675q0 49 37 86t92 37q47 0 84 -38t37 -91 q0 -45 -38 -85t-89 -40q-49 0 -86 37t-37 94z" />
<glyph unicode="&#xc5;" horiz-adv-x="1527" d="M-16 0v88q55 0 80.5 12.5t46.5 32.5l34 41l27 51l49 127l303 776l29 93q12 47 12 69q0 92 -108 92h-23v95h451l10 -107q6 -43 49 -141l342 -891q61 -164 102.5 -207t133.5 -43v-88h-617v90h72q33 0 76 23q45 18 45 80q0 35 -11 65l-16 53l-22 49l-70 189h-514l-76 -193 q-39 -111 -39 -155q0 -111 137 -111h35v-90h-538zM508 676h426l-158 428l-37 113l-8 100l-20 -2l-2 -45l-7 -47l-43 -125zM516 1720q0 82 53 136.5t131 54.5q74 0 129.5 -54.5t55.5 -132.5t-53.5 -133t-126.5 -55q-78 0 -133.5 53t-55.5 131zM618 1720q0 -39 22.5 -62.5 t59.5 -23.5q29 0 56.5 26t27.5 60q0 29 -25.5 53.5t-60.5 24.5t-54 -19.5t-26 -58.5z" />
<glyph unicode="&#xc6;" horiz-adv-x="2162" d="M-29 0v92q80 0 129 47q61 61 125 199l396 807l41 92l16 61q0 59 -51 74q-18 6 -58 10h-45v95h1223h55h53l31 4q49 0 96.5 6t75.5 10v-440h-94q-8 63 -10 71.5t-12 28.5q-8 29 -50 88q-37 59 -104.5 86t-177.5 27h-322v-514h223q137 0 190.5 43t53.5 170h94v-570h-94 l-6 62l-12 53q-6 27 -35 57q-25 31 -74 45.5t-119 14.5h-223v-391q0 -115 49 -164q49 -43 193 -43h28h23q43 0 76 2t55 8l64 10l49 19q31 14 35 16q14 8 28 19l47 49q8 10 20.5 29.5t26.5 45.5q16 41 31 121h94v-463l-137 19l-145 4h-932v92h45q27 0 50.5 7t48 32t36.5 64 l8 43l2 65v250h-577l-98 -213l-48 -107q-12 -31 -12 -53q0 -45 37 -69q37 -18 133 -19v-92h-545zM563 678h518v676l-67 4q-74 0 -107 -20.5t-51 -45.5l-49 -92l-41 -80z" />
<glyph unicode="&#xc7;" horiz-adv-x="1427" d="M104 727q0 360 197 577.5t526 217.5l58 -2l108 -15l117 -22l47 -6l49 -2q51 0 131 18v-436h-86q-37 104 -65 145q-25 43 -115 122t-270 79q-215 0 -342 -182.5t-127 -493.5q0 -287 129 -468t350 -181q209 0 283 106l102 152l51 110h92v-354l-77 -31l-113 -43l-90 -28 l-88 -21q-37 -6 -109 -6l-47 -119l51 4q76 0 124 -47t48 -118q0 -70 -56 -119t-144 -49q-115 0 -263 73l46 90l59 -24l51 -19q35 -10 72 -10q86 0 86 66q0 29 -25.5 48t-62.5 19l-68 -6l-51 41l68 174h-48q-25 0 -51 4t-53 15l-84 26q-94 31 -254 191q-76 80 -117 209 q-18 66 -28.5 142.5t-10.5 172.5z" />
<glyph unicode="&#xc8;" horiz-adv-x="1335" d="M59 1384v93h830h22h101q37 6 53 8l156 18v-446h-91q-8 51 -15 78.5t-25 62.5q-27 57 -69 95t-91 51.5t-164 13.5h-309v-514h223q135 0 189.5 43t54.5 170h92v-570h-90l-8 60q0 23 -11 45q-6 27 -33.5 62.5t-66.5 50t-139 14.5h-209v-367q0 -90 6 -121.5t35 -62.5 q20 -16 73 -33q61 -14 142 -14q229 0 308 53t99 90l31 74l29 104h94v-460l-133 16l-187 2h-895v92h13q63 0 89.5 8.5t48 35t32.5 63.5l4 147v774v70v29v20q-4 14 -5 32.5t-21.5 48.5t-60.5 47t-102 17zM467 1911h211l119 -303h-113z" />
<glyph unicode="&#xc9;" horiz-adv-x="1335" d="M59 1384v93h830h22h101q37 6 53 8l156 18v-446h-91q-8 51 -15 78.5t-25 62.5q-27 57 -69 95t-91 51.5t-164 13.5h-309v-514h223q135 0 189.5 43t54.5 170h92v-570h-90l-8 60q0 23 -11 45q-6 27 -33.5 62.5t-66.5 50t-139 14.5h-209v-367q0 -90 6 -121.5t35 -62.5 q20 -16 73 -33q61 -14 142 -14q229 0 308 53t99 90l31 74l29 104h94v-460l-133 16l-187 2h-895v92h13q63 0 89.5 8.5t48 35t32.5 63.5l4 147v774v70v29v20q-4 14 -5 32.5t-21.5 48.5t-60.5 47t-102 17zM565 1608l123 299h205l-225 -299h-103z" />
<glyph unicode="&#xca;" horiz-adv-x="1335" d="M59 1384v93h830h22h101q37 6 53 8l156 18v-446h-91q-8 51 -15 78.5t-25 62.5q-27 57 -69 95t-91 51.5t-164 13.5h-309v-514h223q135 0 189.5 43t54.5 170h92v-570h-90l-8 60q0 23 -11 45q-6 27 -33.5 62.5t-66.5 50t-139 14.5h-209v-367q0 -90 6 -121.5t35 -62.5 q20 -16 73 -33q61 -14 142 -14q229 0 308 53t99 90l31 74l29 104h94v-460l-133 16l-187 2h-895v92h13q63 0 89.5 8.5t48 35t32.5 63.5l4 147v774v70v29v20q-4 14 -5 32.5t-21.5 48.5t-60.5 47t-102 17zM397 1610l148 299h244l149 -299h-121l-153 174l-150 -174h-117z" />
<glyph unicode="&#xcb;" horiz-adv-x="1335" d="M59 1384v93h830h22h101q37 6 53 8l156 18v-446h-91q-8 51 -15 78.5t-25 62.5q-27 57 -69 95t-91 51.5t-164 13.5h-309v-514h223q135 0 189.5 43t54.5 170h92v-570h-90l-8 60q0 23 -11 45q-6 27 -33.5 62.5t-66.5 50t-139 14.5h-209v-367q0 -90 6 -121.5t35 -62.5 q20 -16 73 -33q61 -14 142 -14q229 0 308 53t99 90l31 74l29 104h94v-460l-133 16l-187 2h-895v92h13q63 0 89.5 8.5t48 35t32.5 63.5l4 147v774v70v29v20q-4 14 -5 32.5t-21.5 48.5t-60.5 47t-102 17zM361 1735q0 43 36 82t85 39q51 0 87 -35t36 -84q0 -53 -35 -90t-86 -37 t-87 35.5t-36 89.5zM730 1737q0 47 37.5 83t84.5 36q45 0 82 -36t37 -87t-34.5 -87t-86.5 -36q-49 0 -84.5 38t-35.5 89z" />
<glyph unicode="&#xcc;" horiz-adv-x="708" d="M29 0v90h22h33q18 0 39 4l31 6q37 10 58 35t30 70l8 149v764l-2 131q0 27 -10 45q-6 20 -45 56q-35 37 -162 36v91h649v-88q-137 0 -182 -52q-41 -51 -41 -215v-778q0 -102 6 -142t47 -77t143 -37h25v-88h-649zM153 1911h211l119 -303h-113z" />
<glyph unicode="&#xcd;" horiz-adv-x="708" d="M29 0v90h22h33q18 0 39 4l31 6q37 10 58 35t30 70l8 149v764l-2 131q0 27 -10 45q-6 20 -45 56q-35 37 -162 36v91h649v-88q-137 0 -182 -52q-41 -51 -41 -215v-778q0 -102 6 -142t47 -77t143 -37h25v-88h-649zM252 1608l123 299h205l-225 -299h-103z" />
<glyph unicode="&#xce;" horiz-adv-x="708" d="M29 0v90h22h33q18 0 39 4l31 6q37 10 58 35t30 70l8 149v764l-2 131q0 27 -10 45q-6 20 -45 56q-35 37 -162 36v91h649v-88q-137 0 -182 -52q-41 -51 -41 -215v-778q0 -102 6 -142t47 -77t143 -37h25v-88h-649zM84 1610l148 299h244l149 -299h-121l-153 174l-150 -174 h-117z" />
<glyph unicode="&#xcf;" horiz-adv-x="708" d="M29 0v90h22h33q18 0 39 4l31 6q37 10 58 35t30 70l8 149v764l-2 131q0 27 -10 45q-6 20 -45 56q-35 37 -162 36v91h649v-88q-137 0 -182 -52q-41 -51 -41 -215v-778q0 -102 6 -142t47 -77t143 -37h25v-88h-649zM47 1735q0 43 36 82t85 39q51 0 87 -35t36 -84 q0 -53 -35 -90t-86 -37t-87 35.5t-36 89.5zM416 1737q0 47 37.5 83t84.5 36q45 0 82 -36t37 -87t-34.5 -87t-86.5 -36q-49 0 -84.5 38t-35.5 89z" />
<glyph unicode="&#xd1;" horiz-adv-x="1613" d="M59 0v90q59 0 93 12.5t59 43t31 68.5t6 136v776v115q0 51 -23 80q-16 29 -55 46t-100 17v93h454l56 -142l84 -131l436 -663q31 -43 63 -109l43 -115l21 -67l8 8l-12 86l-11 111l-6 118v564q0 156 -36.5 204t-174.5 48v88h561v-91q-113 0 -157 -51q-39 -51 -39 -211v-786 q0 -147 24 -336l-186 -39q-39 115 -65 156q-18 39 -99 162l-516 774l-63 98l-29 64l-25 92l-24 -4l12 -86l8 -91l4 -90v-704q0 -96 9.5 -130t49.5 -75t150 -41v-88h-551zM512 1626l2 70q1 24 9 49q12 45 55 82t92 37q31 0 62.5 -11.5t91.5 -52.5q59 -33 94 -39q68 0 67 88 v17h117v-37l-8 -88q-6 -49 -52 -89t-102 -40q-39 0 -65 10l-45 23l-35 18l-33 18l-45 25l-35 10q-59 0 -59 -90h-111z" />
<glyph unicode="&#xd2;" horiz-adv-x="1630" d="M104 733q0 342 197 561t514 219q309 0 511 -217t202 -563q0 -344 -197.5 -563t-515.5 -219q-313 0 -512 217t-199 565zM332 733q0 -281 136 -468t347 -187q209 0 346 184t137 471q0 283 -135 469.5t-348 186.5q-209 0 -346 -182.5t-137 -473.5zM614 1911h211l119 -303 h-113z" />
<glyph unicode="&#xd3;" horiz-adv-x="1630" d="M104 733q0 342 197 561t514 219q309 0 511 -217t202 -563q0 -344 -197.5 -563t-515.5 -219q-313 0 -512 217t-199 565zM332 733q0 -281 136 -468t347 -187q209 0 346 184t137 471q0 283 -135 469.5t-348 186.5q-209 0 -346 -182.5t-137 -473.5zM713 1608l123 299h205 l-225 -299h-103z" />
<glyph unicode="&#xd4;" horiz-adv-x="1630" d="M104 733q0 342 197 561t514 219q309 0 511 -217t202 -563q0 -344 -197.5 -563t-515.5 -219q-313 0 -512 217t-199 565zM332 733q0 -281 136 -468t347 -187q209 0 346 184t137 471q0 283 -135 469.5t-348 186.5q-209 0 -346 -182.5t-137 -473.5zM544 1610l148 299h244 l149 -299h-121l-153 174l-150 -174h-117z" />
<glyph unicode="&#xd5;" horiz-adv-x="1630" d="M104 733q0 342 197 561t514 219q309 0 511 -217t202 -563q0 -344 -197.5 -563t-515.5 -219q-313 0 -512 217t-199 565zM332 733q0 -281 136 -468t347 -187q209 0 346 184t137 471q0 283 -135 469.5t-348 186.5q-209 0 -346 -182.5t-137 -473.5zM520 1626l2 70q1 24 9 49 q12 45 55 82t92 37q31 0 62.5 -11.5t91.5 -52.5q59 -33 94 -39q68 0 67 88v17h117v-37l-8 -88q-6 -49 -52 -89t-102 -40q-39 0 -65 10l-45 23l-35 18l-33 18l-45 25l-35 10q-59 0 -59 -90h-111z" />
<glyph unicode="&#xd6;" horiz-adv-x="1630" d="M104 733q0 342 197 561t514 219q309 0 511 -217t202 -563q0 -344 -197.5 -563t-515.5 -219q-313 0 -512 217t-199 565zM332 733q0 -281 136 -468t347 -187q209 0 346 184t137 471q0 283 -135 469.5t-348 186.5q-209 0 -346 -182.5t-137 -473.5zM399 1669q0 49 34 89 t85 40q55 0 93 -36t38 -87t-35.5 -91t-89.5 -40q-45 0 -85 38t-40 87zM985 1675q0 49 37 86t94 37q45 0 82 -38t37 -91q0 -47 -36 -86t-89 -39q-47 0 -86 37t-39 94z" />
<glyph unicode="&#xd8;" horiz-adv-x="1619" d="M104 733q0 346 197 567.5t514 221.5q141 0 215 -31l49 -21l62 -32q20 -6 41 -23l57 -41l121 154h147l-186 -240q47 -47 72 -84q49 -68 87 -205t38 -270q0 -348 -198 -564t-513 -216q-131 0 -215 30.5t-191 100.5l-112 -152h-154l174 232l-61 78q-143 193 -144 495z M334 733q0 -176 57 -334l37 -84l707 926q-31 43 -54.5 63.5t-95.5 55.5q-68 37 -178 37q-215 0 -344 -179.5t-129 -484.5zM498 215q78 -82 141 -113q68 -27 168 -26q117 0 207 43q72 39 172 182t100 430q0 125 -13 196.5t-69 213.5z" />
<glyph unicode="&#xd9;" horiz-adv-x="1611" d="M66 1389v88h606v-88q-125 0 -170 -52q-41 -51 -41 -202v-611q0 -113 12 -167t88 -149t268 -95q201 0 286 117.5t85 281.5v633q0 147 -36 195.5t-158 48.5v88h555v-91q-123 0 -164 -53t-41 -209v-624q0 -254 -143.5 -398.5t-397.5 -144.5q-274 0 -417.5 147.5 t-143.5 380.5v654v53v45l-4 23q0 39 -21.5 69.5t-60.5 45t-102 14.5zM604 1911h211l119 -303h-113z" />
<glyph unicode="&#xda;" horiz-adv-x="1611" d="M66 1389v88h606v-88q-125 0 -170 -52q-41 -51 -41 -202v-611q0 -113 12 -167t88 -149t268 -95q201 0 286 117.5t85 281.5v633q0 147 -36 195.5t-158 48.5v88h555v-91q-123 0 -164 -53t-41 -209v-624q0 -254 -143.5 -398.5t-397.5 -144.5q-274 0 -417.5 147.5 t-143.5 380.5v654v53v45l-4 23q0 39 -21.5 69.5t-60.5 45t-102 14.5zM702 1608l123 299h205l-225 -299h-103z" />
<glyph unicode="&#xdb;" horiz-adv-x="1611" d="M66 1389v88h606v-88q-125 0 -170 -52q-41 -51 -41 -202v-611q0 -113 12 -167t88 -149t268 -95q201 0 286 117.5t85 281.5v633q0 147 -36 195.5t-158 48.5v88h555v-91q-123 0 -164 -53t-41 -209v-624q0 -254 -143.5 -398.5t-397.5 -144.5q-274 0 -417.5 147.5 t-143.5 380.5v654v53v45l-4 23q0 39 -21.5 69.5t-60.5 45t-102 14.5zM534 1610l148 299h244l149 -299h-121l-153 174l-150 -174h-117z" />
<glyph unicode="&#xdc;" horiz-adv-x="1611" d="M66 1389v88h606v-88q-125 0 -170 -52q-41 -51 -41 -202v-611q0 -113 12 -167t88 -149t268 -95q201 0 286 117.5t85 281.5v633q0 147 -36 195.5t-158 48.5v88h555v-91q-123 0 -164 -53t-41 -209v-624q0 -254 -143.5 -398.5t-397.5 -144.5q-274 0 -417.5 147.5 t-143.5 380.5v654v53v45l-4 23q0 39 -21.5 69.5t-60.5 45t-102 14.5zM481 1669q0 49 34 89t83 40q57 0 95 -34.5t38 -88.5q0 -51 -39 -91t-88 -40t-86 37t-37 88zM948 1675q0 49 37 86t96 37q43 0 80 -38t37 -91q0 -47 -36 -86t-89 -39q-47 0 -86 37t-39 94z" />
<glyph unicode="&#xdf;" horiz-adv-x="1300" d="M45 0v88q121 0 141.5 39t32.5 102q6 53 6 158v580h-172v110h170v140q0 252 120 397t333 145q162 0 265 -90t103 -229q0 -61 -22.5 -111.5t-56.5 -95.5l-95 -78l-57 -39l-43 -33q-20 -27 -27 -57q0 -25 19 -53q18 -18 127 -88l141 -92q18 -14 48 -42t81 -85 q96 -100 96 -281q0 -182 -122.5 -302t-303.5 -120q-88 0 -167.5 25.5t-178.5 95.5l47 88q145 -61 232 -61q111 0 189.5 73.5t78.5 192.5l-6 53q-6 31 -25 68q-12 35 -51 75q-29 33 -110 103l-109 90l-98 90q-61 61 -62 145q0 61 29 105.5t100 91.5l88 64q27 20 50 59l16 37 q6 16 8 29.5t2 39.5q0 92 -54 148.5t-149 56.5q-102 0 -172.5 -74.5t-70.5 -201.5l2 -121v-1235h-373z" />
<glyph unicode="&#xe0;" horiz-adv-x="1198" d="M76 262q0 123 80 219.5t183 132t187 52.5l133 20l129 8v37q0 274 -243 275q-109 0 -170 -50q-53 -47 -82 -98q-20 -43 -47 -139h-90v377l51 -15l47 -4l63 6l56 11l139 22l84 6q63 0 135 -18.5t133.5 -56t91.5 -103.5q27 -70 27 -180v-412v-84l2 -65q2 -23 22.5 -54.5 t55.5 -50.5q31 -12 102 -12v-86h-336l-18 158l-80 -78q-141 -117 -317 -117q-152 0 -245 80t-93 219zM283 285q0 -74 53 -121q23 -16 61 -33q37 -12 82 -12q176 0 230.5 99t68.5 157q8 49 9 84t1 55v61l-73 -2q-37 0 -64 -8l-96 -22l-68 -23l-110 -49q-94 -43 -94 -186z M397 1485h211l119 -303h-113z" />
<glyph unicode="&#xe1;" horiz-adv-x="1198" d="M76 262q0 123 80 219.5t183 132t187 52.5l133 20l129 8v37q0 274 -243 275q-109 0 -170 -50q-53 -47 -82 -98q-20 -43 -47 -139h-90v377l51 -15l47 -4l63 6l56 11l139 22l84 6q63 0 135 -18.5t133.5 -56t91.5 -103.5q27 -70 27 -180v-412v-84l2 -65q2 -23 22.5 -54.5 t55.5 -50.5q31 -12 102 -12v-86h-336l-18 158l-80 -78q-141 -117 -317 -117q-152 0 -245 80t-93 219zM283 285q0 -74 53 -121q23 -16 61 -33q37 -12 82 -12q176 0 230.5 99t68.5 157q8 49 9 84t1 55v61l-73 -2q-37 0 -64 -8l-96 -22l-68 -23l-110 -49q-94 -43 -94 -186z M496 1182l123 299h205l-225 -299h-103z" />
<glyph unicode="&#xe2;" horiz-adv-x="1198" d="M76 262q0 123 80 219.5t183 132t187 52.5l133 20l129 8v37q0 274 -243 275q-109 0 -170 -50q-53 -47 -82 -98q-20 -43 -47 -139h-90v377l51 -15l47 -4l63 6l56 11l139 22l84 6q63 0 135 -18.5t133.5 -56t91.5 -103.5q27 -70 27 -180v-412v-84l2 -65q2 -23 22.5 -54.5 t55.5 -50.5q31 -12 102 -12v-86h-336l-18 158l-80 -78q-141 -117 -317 -117q-152 0 -245 80t-93 219zM283 285q0 -74 53 -121q23 -16 61 -33q37 -12 82 -12q176 0 230.5 99t68.5 157q8 49 9 84t1 55v61l-73 -2q-37 0 -64 -8l-96 -22l-68 -23l-110 -49q-94 -43 -94 -186z M327 1184l148 299h244l149 -299h-121l-153 174l-150 -174h-117z" />
<glyph unicode="&#xe3;" horiz-adv-x="1198" d="M76 262q0 123 80 219.5t183 132t187 52.5l133 20l129 8v37q0 274 -243 275q-109 0 -170 -50q-53 -47 -82 -98q-20 -43 -47 -139h-90v377l51 -15l47 -4l63 6l56 11l139 22l84 6q63 0 135 -18.5t133.5 -56t91.5 -103.5q27 -70 27 -180v-412v-84l2 -65q2 -23 22.5 -54.5 t55.5 -50.5q31 -12 102 -12v-86h-336l-18 158l-80 -78q-141 -117 -317 -117q-152 0 -245 80t-93 219zM283 285q0 -74 53 -121q23 -16 61 -33q37 -12 82 -12q176 0 230.5 99t68.5 157q8 49 9 84t1 55v61l-73 -2q-37 0 -64 -8l-96 -22l-68 -23l-110 -49q-94 -43 -94 -186z M303 1200l2 70q1 24 9 49q12 45 55 82t92 37q31 0 62.5 -11.5t91.5 -52.5q59 -33 94 -39q68 0 67 88v17h117v-37l-8 -88q-6 -49 -52 -89t-102 -40q-39 0 -65 10l-45 23l-35 18l-33 18l-45 25l-35 10q-59 0 -59 -90h-111z" />
<glyph unicode="&#xe4;" horiz-adv-x="1206" d="M74 262q0 123 79.5 219.5t183 132t189.5 52.5l131 20l129 8v37q0 274 -243 275q-109 0 -170 -50q-53 -47 -82 -98q-20 -43 -47 -139h-90v377l51 -15l47 -4l63 6l56 11l139 22l84 6q63 0 135 -18.5t133.5 -56t91.5 -103.5q27 -70 27 -180v-412v-84l2 -65q2 -23 22.5 -54.5 t55.5 -50.5q31 -12 102 -12v-86h-336l-18 158l-80 -78q-141 -117 -317 -117q-152 0 -245 80t-93 219zM279 1329q0 49 35.5 85t84.5 36q51 0 87 -35t36 -84q0 -53 -34.5 -90t-86.5 -37q-51 0 -88 35q-35 39 -34 90zM281 285q0 -78 52 -122t142 -44q180 0 233.5 99t67.5 157 q8 49 9 84t1 55v61l-73 -2q-37 0 -64 -8l-96 -22l-68 -23l-110 -49q-94 -43 -94 -186zM647 1331q0 47 38 83t85 36q45 0 82 -36t37 -87t-35 -87t-86 -36q-49 0 -85 38t-36 89z" />
<glyph unicode="&#xe5;" horiz-adv-x="1206" d="M74 262q0 123 79.5 219.5t183 132t189.5 52.5l131 20l129 8v37q0 274 -243 275q-109 0 -170 -50q-53 -47 -82 -98q-20 -43 -47 -139h-90v377l51 -15l47 -4l63 6l56 11l139 22l84 6q63 0 135 -18.5t133.5 -56t91.5 -103.5q27 -70 27 -180v-412v-84l2 -65q2 -23 22.5 -54.5 t55.5 -50.5q31 -12 102 -12v-86h-336l-18 158l-80 -78q-141 -117 -317 -117q-152 0 -245 80t-93 219zM281 285q0 -78 52 -122t142 -44q180 0 233.5 99t67.5 157q8 49 9 84t1 55v61l-73 -2q-37 0 -64 -8l-96 -22l-68 -23l-110 -49q-94 -43 -94 -186zM387 1356q0 68 55 120 t125 52t124 -54.5t54 -127.5q0 -72 -50 -122t-126 -50t-129 53t-53 129zM461 1358q0 -43 31 -84q30 -35 75 -35q37 0 78 31q33 33 33 71q0 49 -32 85t-79 36q-39 0 -72.5 -32.5t-33.5 -71.5z" />
<glyph unicode="&#xe6;" horiz-adv-x="1822" d="M74 272q0 188 114 260q59 35 104.5 57.5t88.5 39.5q78 25 184 43l217 33v38q0 264 -241 265q-121 0 -178.5 -53.5t-78 -93.5t-44.5 -140h-95v375l64 -11l43 -2l41 2h24h17q10 4 14 5l105 20l77 12l80 4q68 0 134.5 -18t107.5 -43l78 -84q84 72 162.5 105.5t183.5 33.5 q98 0 189 -36.5t151 -102.5q57 -55 90 -145q12 -33 19.5 -63t15.5 -71l8 -145h-774q0 -209 94 -327.5t258 -118.5q117 0 178 41l94 61l76 68l72 -74l-70 -76q-29 -29 -96 -78q-16 -12 -49 -29.5t-92.5 -39t-153.5 -21.5q-109 0 -195.5 36t-138.5 75q-41 35 -108 133l-74 -96 q-29 -33 -112 -86.5t-240 -53.5q-160 0 -252 80t-92 221zM281 295q0 -78 55 -123t139 -45q133 0 216 89t83 237l6 129q-66 0 -112 -11q-43 -6 -60.5 -9t-77.5 -19q-88 -18 -168.5 -84t-80.5 -164zM981 678h438q66 0 86.5 12t20.5 49q0 117 -68.5 194t-177.5 77 q-135 0 -190.5 -81t-77.5 -128z" />
<glyph unicode="&#xe7;" horiz-adv-x="1110" d="M88 522q0 260 146.5 431t369.5 171q57 0 78 -4q41 0 102 -20l64 -15l29 -6l34 -2q39 0 107 31v-383h-90l-15 59q-6 37 -22 66q-12 31 -70.5 101.5t-185.5 70.5q-147 0 -249.5 -131t-102.5 -328q0 -205 102 -334t260 -129q70 0 127 23l59 22l52 31q55 33 123 94l71 -75 q-106 -113 -188 -164q-68 -39 -227 -76l-37 -92l51 4q72 0 123 -49t51 -117q0 -74 -57.5 -120t-145.5 -46q-125 0 -262 72l45 92l102 -43l50 -8l30 -2q86 0 86 61q0 25 -26 49q-27 20 -60 21l-69 -6l-51 41l59 145q-111 18 -168 44t-176 134.5t-119 386.5z" />
<glyph unicode="&#xe8;" horiz-adv-x="1146" d="M88 524q0 260 145.5 426t370.5 166q98 0 178 -33q80 -29 143.5 -91t96.5 -134l22 -65q12 -37 19 -82l8 -80l2 -76h-772l2 -66q0 -78 23.5 -139t97.5 -152.5t223 -91.5q102 0 180 43.5t174 124.5l64 -73q-102 -123 -215 -180.5t-242 -57.5q-229 0 -374.5 154.5 t-145.5 406.5zM309 678h439q76 0 89 12t13 64q0 106 -69.5 180t-174.5 74q-135 0 -195.5 -85t-74.5 -126zM372 1485h211l119 -303h-113z" />
<glyph unicode="&#xe9;" horiz-adv-x="1146" d="M88 524q0 260 145.5 426t370.5 166q98 0 178 -33q80 -29 143.5 -91t96.5 -134l22 -65q12 -37 19 -82l8 -80l2 -76h-772l2 -66q0 -78 23.5 -139t97.5 -152.5t223 -91.5q102 0 180 43.5t174 124.5l64 -73q-102 -123 -215 -180.5t-242 -57.5q-229 0 -374.5 154.5 t-145.5 406.5zM309 678h439q76 0 89 12t13 64q0 106 -69.5 180t-174.5 74q-135 0 -195.5 -85t-74.5 -126zM471 1182l123 299h205l-225 -299h-103z" />
<glyph unicode="&#xea;" horiz-adv-x="1146" d="M88 524q0 260 145.5 426t370.5 166q98 0 178 -33q80 -29 143.5 -91t96.5 -134l22 -65q12 -37 19 -82l8 -80l2 -76h-772l2 -66q0 -78 23.5 -139t97.5 -152.5t223 -91.5q102 0 180 43.5t174 124.5l64 -73q-102 -123 -215 -180.5t-242 -57.5q-229 0 -374.5 154.5 t-145.5 406.5zM303 1184l148 299h244l149 -299h-121l-153 174l-150 -174h-117zM309 678h439q76 0 89 12t13 64q0 106 -69.5 180t-174.5 74q-135 0 -195.5 -85t-74.5 -126z" />
<glyph unicode="&#xeb;" horiz-adv-x="1146" d="M88 524q0 260 145.5 426t370.5 166q98 0 178 -33q80 -29 143.5 -91t96.5 -134l22 -65q12 -37 19 -82l8 -80l2 -76h-772l2 -66q0 -78 23.5 -139t97.5 -152.5t223 -91.5q102 0 180 43.5t174 124.5l64 -73q-102 -123 -215 -180.5t-242 -57.5q-229 0 -374.5 154.5 t-145.5 406.5zM266 1309q0 43 36 82t85 39q51 0 87 -35t36 -84q0 -53 -35 -90t-86 -37t-87 35.5t-36 89.5zM309 678h439q76 0 89 12t13 64q0 106 -69.5 180t-174.5 74q-135 0 -195.5 -85t-74.5 -126zM635 1311q0 47 37.5 83t84.5 36q45 0 82 -36t37 -87t-34.5 -87t-86.5 -36 q-49 0 -84.5 38t-35.5 89z" />
<glyph unicode="&#xec;" horiz-adv-x="643" d="M45 0v88q104 0 143 48t39 188v460q0 141 -27.5 166t-54 33t-100.5 8v92l385 39l-2 -88l-6 -207v-499q0 -84 6 -123t41 -79t137 -40v-86h-561zM120 1485h211l119 -303h-113z" />
<glyph unicode="&#xed;" horiz-adv-x="643" d="M45 0v88q104 0 143 48t39 188v460q0 141 -27.5 166t-54 33t-100.5 8v92l385 39l-2 -88l-6 -207v-499q0 -84 6 -123t41 -79t137 -40v-86h-561zM219 1182l123 299h205l-225 -299h-103z" />
<glyph unicode="&#xee;" horiz-adv-x="643" d="M45 0v88q104 0 143 48t39 188v460q0 141 -27.5 166t-54 33t-100.5 8v92l385 39l-2 -88l-6 -207v-499q0 -84 6 -123t41 -79t137 -40v-86h-561zM51 1184l148 299h244l149 -299h-121l-153 174l-150 -174h-117z" />
<glyph unicode="&#xef;" horiz-adv-x="643" d="M14 1309q0 43 36 82t85 39q51 0 87 -35t36 -84q0 -53 -35 -90t-86 -37t-87 35.5t-36 89.5zM45 0v88q104 0 143 48t39 188v460q0 141 -27.5 166t-54 33t-100.5 8v92l385 39l-2 -88l-6 -207v-499q0 -84 6 -123t41 -79t137 -40v-86h-561zM383 1311q0 47 37.5 83t84.5 36 q45 0 82 -36t37 -87t-34.5 -87t-86.5 -36q-49 0 -84.5 38t-35.5 89z" />
<glyph unicode="&#xf1;" horiz-adv-x="1384" d="M37 0v88q111 0 147.5 55.5t36.5 190.5v463q0 119 -34.5 157.5t-139.5 38.5h-8v92l379 37l-6 -190q55 82 158.5 136t211.5 54q141 0 258 -85t117 -306v-387q0 -100 6 -139t25 -70q18 -25 53 -37t98 -12v-86h-563v90q113 0 150 49t37 217v361q0 117 -60.5 192.5 t-165.5 75.5q-133 0 -228 -111.5t-95 -277.5v-264q0 -152 33.5 -199t148.5 -47v-86h-559zM397 1200l2 70q1 24 9 49q12 45 55 82t92 37q31 0 62.5 -11.5t91.5 -52.5q59 -33 94 -39q68 0 67 88v17h117v-37l-8 -88q-6 -49 -52 -89t-102 -40q-39 0 -65 10l-45 23l-35 18l-33 18 l-45 25l-35 10q-59 0 -59 -90h-111z" />
<glyph unicode="&#xf2;" horiz-adv-x="1259" d="M88 541q0 252 150.5 414.5t390.5 162.5q236 0 389 -160.5t153 -416.5q0 -252 -148.5 -414t-389.5 -162q-240 0 -392.5 161t-152.5 415zM303 541q0 -205 91 -332t237 -127q141 0 233 129t92 332q0 205 -90 333t-235 128q-141 0 -234.5 -130t-93.5 -333zM428 1485h211 l119 -303h-113z" />
<glyph unicode="&#xf3;" horiz-adv-x="1259" d="M88 541q0 252 150.5 414.5t390.5 162.5q236 0 389 -160.5t153 -416.5q0 -252 -148.5 -414t-389.5 -162q-240 0 -392.5 161t-152.5 415zM303 541q0 -205 91 -332t237 -127q141 0 233 129t92 332q0 205 -90 333t-235 128q-141 0 -234.5 -130t-93.5 -333zM526 1182l123 299 h205l-225 -299h-103z" />
<glyph unicode="&#xf4;" horiz-adv-x="1259" d="M88 541q0 252 150.5 414.5t390.5 162.5q236 0 389 -160.5t153 -416.5q0 -252 -148.5 -414t-389.5 -162q-240 0 -392.5 161t-152.5 415zM303 541q0 -205 91 -332t237 -127q141 0 233 129t92 332q0 205 -90 333t-235 128q-141 0 -234.5 -130t-93.5 -333zM358 1184l148 299 h244l149 -299h-121l-153 174l-150 -174h-117z" />
<glyph unicode="&#xf5;" horiz-adv-x="1259" d="M88 541q0 252 150.5 414.5t390.5 162.5q236 0 389 -160.5t153 -416.5q0 -252 -148.5 -414t-389.5 -162q-240 0 -392.5 161t-152.5 415zM303 541q0 -205 91 -332t237 -127q141 0 233 129t92 332q0 205 -90 333t-235 128q-141 0 -234.5 -130t-93.5 -333zM333 1200l2 70 q1 24 9 49q12 45 55 82t92 37q31 0 62.5 -11.5t91.5 -52.5q59 -33 94 -39q68 0 67 88v17h117v-37l-8 -88q-6 -49 -52 -89t-102 -40q-39 0 -65 10l-45 23l-35 18l-33 18l-45 25l-35 10q-59 0 -59 -90h-111z" />
<glyph unicode="&#xf6;" horiz-adv-x="1259" d="M88 541q0 252 150.5 414.5t390.5 162.5q236 0 389 -160.5t153 -416.5q0 -252 -148.5 -414t-389.5 -162q-240 0 -392.5 161t-152.5 415zM303 541q0 -205 91 -332t237 -127q141 0 233 129t92 332q0 205 -90 333t-235 128q-141 0 -234.5 -130t-93.5 -333zM324 1329 q0 47 34.5 84t83.5 37q51 0 88 -35t37 -84q0 -53 -34.5 -90t-88.5 -37q-49 0 -84.5 38t-35.5 87zM690 1331q0 47 38 83t87 36q45 0 81 -36t36 -87t-35 -87t-84 -36t-86 37t-37 90z" />
<glyph unicode="&#xf7;" horiz-adv-x="1216" d="M88 414v139h948v-139h-948zM446 207q0 47 38 82t79 35q49 0 82 -33t33 -84q0 -49 -35 -82q-31 -35 -80 -35t-84 35q-33 39 -33 82zM446 758q0 47 38 81.5t79 34.5q47 0 81 -36.5t34 -79.5q0 -49 -35 -82q-31 -35 -80 -35t-84 33q-33 39 -33 84z" />
<glyph unicode="&#xf8;" horiz-adv-x="1290" d="M88 535q0 256 153.5 421.5t401.5 165.5q84 0 144.5 -18.5t160.5 -73.5l107 139h147l-164 -213q41 -47 66 -90q23 -33 53 -145l19 -96l8 -90q0 -252 -152.5 -411t-392.5 -159h-29h-22l-25 4l-41 2l-41 13l-43 14q-20 4 -30 10l-64 35l-98 -135h-146l150 207l-47 57 q-59 78 -88 166q-27 94 -27 197zM299 528q0 -98 8 -129l19 -61l36 -76l494 645q-88 94 -221 94q-145 0 -240.5 -130t-95.5 -343zM436 164q51 -47 94 -70q45 -16 117 -16q147 0 241.5 131t94.5 336q0 43 -2 75.5t-10 68.5t-43 118z" />
<glyph unicode="&#xf9;" horiz-adv-x="1390" d="M45 999v84l383 35l-10 -129v-172v-444q0 -266 237 -267q139 0 227.5 111t88.5 303v242v24q0 92 -8 123q-6 37 -31 55.5t-60 28.5q-31 6 -108 6v84l405 33l-4 -133l-2 -174v-465v-78q0 -43 4 -67.5t22.5 -55t50.5 -43t106 -12.5v-88h-340l-17 168q-147 -203 -383 -203 q-178 0 -284 115q-96 96 -97 293v385v26q0 84 -6 122t-26 55q-18 20 -54 30zM493 1485h211l119 -303h-113z" />
<glyph unicode="&#xfa;" horiz-adv-x="1390" d="M45 999v84l383 35l-10 -129v-172v-444q0 -266 237 -267q139 0 227.5 111t88.5 303v242v24q0 92 -8 123q-6 37 -31 55.5t-60 28.5q-31 6 -108 6v84l405 33l-4 -133l-2 -174v-465v-78q0 -43 4 -67.5t22.5 -55t50.5 -43t106 -12.5v-88h-340l-17 168q-147 -203 -383 -203 q-178 0 -284 115q-96 96 -97 293v385v26q0 84 -6 122t-26 55q-18 20 -54 30zM592 1182l123 299h205l-225 -299h-103z" />
<glyph unicode="&#xfb;" horiz-adv-x="1390" d="M45 999v84l383 35l-10 -129v-172v-444q0 -266 237 -267q139 0 227.5 111t88.5 303v242v24q0 92 -8 123q-6 37 -31 55.5t-60 28.5q-31 6 -108 6v84l405 33l-4 -133l-2 -174v-465v-78q0 -43 4 -67.5t22.5 -55t50.5 -43t106 -12.5v-88h-340l-17 168q-147 -203 -383 -203 q-178 0 -284 115q-96 96 -97 293v385v26q0 84 -6 122t-26 55q-18 20 -54 30zM424 1184l148 299h244l149 -299h-121l-153 174l-150 -174h-117z" />
<glyph unicode="&#xfc;" horiz-adv-x="1390" d="M45 999v84l383 35l-10 -129v-172v-444q0 -266 237 -267q139 0 227.5 111t88.5 303v242v24q0 92 -8 123q-6 37 -31 55.5t-60 28.5q-31 6 -108 6v84l405 33l-4 -133l-2 -174v-465v-78q0 -43 4 -67.5t22.5 -55t50.5 -43t106 -12.5v-88h-340l-17 168q-147 -203 -383 -203 q-178 0 -284 115q-96 96 -97 293v385v26q0 84 -6 122t-26 55q-18 20 -54 30zM354 1329q0 47 35 84t84 37q51 0 88 -35t37 -84q0 -53 -35 -90t-88 -37q-49 0 -85 38t-36 87zM721 1331q0 47 38 83t87 36q45 0 81 -36t36 -87t-35 -87t-84 -36t-86 37t-37 90z" />
<glyph unicode="&#xff;" horiz-adv-x="1116" d="M-16 985v92h510v-82l-50 -6q-18 0 -61 -18q-43 -12 -43 -76q0 -16 15.5 -64.5t43.5 -113.5l150 -369l14 -49l15 -59l-3 -56l17 9q10 92 39 159l137 373q49 123 49 176q0 51 -29 68q-25 18 -116 30v78h458v-78q-57 -12 -90 -30q-16 -12 -47 -76l-49 -129l-340 -821 q-47 -123 -80 -183l-37 -57l-65 -90q-80 -104 -285 -105l-65 3q-16 0 -72 20v338h90l16 -68l29 -63q23 -45 98 -45q66 0 138 80l49 75l41 68l33 76l-328 776l-19 47q-16 41 -28 57l-37 62q-14 27 -39 39q-18 12 -59 12zM252 1309q0 43 36 82t85 39q51 0 87 -35t36 -84 q0 -53 -35 -90t-86 -37t-87 35.5t-36 89.5zM621 1311q0 47 37.5 83t84.5 36q45 0 82 -36t37 -87t-34.5 -87t-86.5 -36q-49 0 -84.5 38t-35.5 89z" />
<glyph unicode="&#x152;" horiz-adv-x="2189" d="M102 739q0 178 80 340t202 251t244 126t269 37l125 -6l104 -6l121 -4h533l166 8l135 14v-442h-94q-18 119 -62.5 184.5t-112 92t-180.5 26.5h-321v-516h229q135 0 187.5 46t52.5 167h96v-570h-96q0 129 -57.5 180.5t-196.5 51.5h-213v-389q0 -123 52 -167t198 -44 q211 0 289.5 40t111.5 83l21 37l20 38l33 123h92v-467l-172 21l-154 6h-551l-104 -4l-137 2h-162q-319 0 -533.5 209t-214.5 532zM332 741q0 -281 144.5 -453.5t379.5 -172.5q135 0 179 42t56.5 81.5t12.5 121.5v807q0 80 -10 109q-6 31 -52.5 63.5t-162.5 32.5 q-240 0 -393.5 -174t-153.5 -457z" />
<glyph unicode="&#x153;" horiz-adv-x="2021" d="M88 541q0 129 37 233q20 57 45 99t70 88q152 162 393 161q117 0 198 -35q86 -31 130 -67q43 -31 110 -111l39 47l33 35q55 55 152.5 94t187.5 39q197 0 331 -134t134 -343l-2 -86h-775q0 -209 93.5 -329.5t255.5 -120.5q125 0 202 51q68 39 152 117l68 -76 q-94 -119 -210 -178.5t-253 -59.5q-115 0 -186.5 27.5t-123.5 62.5q-45 35 -106 115l-45 -47l-96 -90q-37 -31 -109 -48.5t-184 -17.5q-231 0 -386 161t-155 413zM305 541q0 -203 93.5 -330t236.5 -127q150 0 240 127t90 334q0 209 -91.5 338t-240.5 129q-150 0 -239 -129 t-89 -342zM1178 682h417h29l62 2l10 4q10 8 14 12q16 12 16 60q0 100 -72.5 178t-174.5 78q-125 0 -189 -82q-55 -80 -74.5 -127t-37.5 -125z" />
<glyph unicode="&#x178;" horiz-adv-x="1241" d="M-16 1384v93h518v-91q-70 0 -103.5 -19t-33.5 -60q0 -27 10 -54l53 -100l158 -281l32 -57l7 -29l4 -30l6 2l16 55l37 68l139 262l41 74l15 34l6 37q0 51 -34 73.5t-118 22.5v93h518v-91q-70 -18 -114 -57q-31 -27 -125 -178l-314 -514v-287q0 -104 6.5 -137t30.5 -70 q23 -29 68 -45l63 -10h56v-88h-652v90q137 0 180.5 46t43.5 210v293l-316 539l-55 98l-18 29l-31 32q-31 31 -94 47zM313 1735q0 43 36 82t85 39q51 0 87 -35t36 -84q0 -53 -35 -90t-86 -37t-87 35.5t-36 89.5zM682 1737q0 47 37.5 83t84.5 36q45 0 82 -36t37 -87t-34.5 -87 t-86.5 -36q-49 0 -84.5 38t-35.5 89z" />
<glyph unicode="&#x2000;" horiz-adv-x="959" />
<glyph unicode="&#x2001;" horiz-adv-x="1919" />
<glyph unicode="&#x2002;" horiz-adv-x="959" />
<glyph unicode="&#x2003;" horiz-adv-x="1919" />
<glyph unicode="&#x2004;" horiz-adv-x="639" />
<glyph unicode="&#x2005;" horiz-adv-x="479" />
<glyph unicode="&#x2006;" horiz-adv-x="319" />
<glyph unicode="&#x2007;" horiz-adv-x="319" />
<glyph unicode="&#x2008;" horiz-adv-x="239" />
<glyph unicode="&#x2009;" horiz-adv-x="383" />
<glyph unicode="&#x200a;" horiz-adv-x="106" />
<glyph unicode="&#x2010;" horiz-adv-x="806" d="M104 598v137h598v-137h-598z" />
<glyph unicode="&#x2011;" horiz-adv-x="806" d="M104 598v137h598v-137h-598z" />
<glyph unicode="&#x2012;" horiz-adv-x="806" d="M104 598v137h598v-137h-598z" />
<glyph unicode="&#x2013;" d="M88 594v178h1079v-178h-1079z" />
<glyph unicode="&#x2014;" horiz-adv-x="2039" d="M61 684v107h1917v-107h-1917z" />
<glyph unicode="&#x2018;" horiz-adv-x="471" d="M70 1112q0 45 8 86t26 80q33 72 64 108l59 58l88 63l62 -71q-18 -10 -35 -21q-29 -18 -48.5 -33.5t-37.5 -52.5l-29 -59l-8 -49q0 -49 68 -86q70 -31 69 -113q0 -43 -37 -90q-39 -39 -86 -39q-74 0 -118.5 61.5t-44.5 157.5z" />
<glyph unicode="&#x2019;" horiz-adv-x="471" d="M74 965q41 23 71 50t50 58q39 59 38 107q0 31 -10 43q-6 14 -68.5 45.5t-62.5 107.5q0 51 37 92t90 41q66 0 114 -63.5t48 -157.5q0 -90 -32 -161.5t-66 -108.5l-62 -64l-84 -61z" />
<glyph unicode="&#x201a;" horiz-adv-x="471" d="M74 -319q49 27 73 53l23 22l25 33q39 59 38 107q0 29 -7 42t-72 50q-61 31 -62 104q0 51 37 92t90 41q66 0 114 -63.5t48 -157.5q0 -90 -32 -161.5t-66 -108.5q-31 -37 -62 -62l-84 -63z" />
<glyph unicode="&#x201c;" horiz-adv-x="854" d="M74 1110q0 61 18 123q8 29 19.5 56.5t27.5 51.5l62 76q31 31 106 88l68 -75l-39 -23l-66 -53q-53 -41 -53 -137q0 -35 10.5 -50.5t53.5 -38t60 -50t17 -68.5q0 -55 -35.5 -91t-89.5 -36q-74 0 -116.5 61.5t-42.5 165.5zM459 1110l2 64l2 32l16 51q12 39 45 84l62 76 l104 88l68 -75l-74 -50q-82 -66 -82 -163q0 -35 8 -47.5t21.5 -21.5t36.5 -24q43 -20 58 -47.5t15 -66.5q0 -55 -35.5 -91t-89.5 -36q-66 0 -114 61q-43 61 -43 166z" />
<glyph unicode="&#x201d;" horiz-adv-x="854" d="M74 956l71 52q84 68 84 163q0 33 -11 47.5t-56 41t-60 49.5q-14 29 -14 67q0 55 37 92t92 37q66 0 115 -61q43 -61 43 -166v-25q0 -12 -4 -28l-13 -70q-6 -27 -22 -53l-31 -60q-31 -43 -61.5 -73.5t-104.5 -85.5zM459 956l71 52q82 66 82 163q0 33 -10 47.5t-55 41 t-60 49.5q-14 29 -14 71q0 55 35 90t92 35q66 0 115 -61q43 -61 43 -166l-2 -66q0 -18 -2 -25t-15 -40q-12 -45 -44.5 -95.5t-64.5 -82t-106 -86.5z" />
<glyph unicode="&#x201e;" horiz-adv-x="854" d="M74 -252l39 25l32 26q37 31 62 76l16 43l6 45q0 29 -11 44.5t-55 42t-59.5 51t-15.5 67.5q0 47 38 87t91 40q66 0 115 -62q43 -61 43 -163v-25l-4 -35l-2 -26l-15 -45q-12 -45 -49 -107q-10 -14 -29.5 -36.5t-35.5 -39.5q-27 -31 -101 -84zM459 -252l35 23l36 28 q10 8 27.5 29.5t32.5 44.5l16 43l6 47q0 29 -9 42t-22.5 22.5t-35.5 23.5q-43 25 -58 47q-14 29 -14 70q0 55 36 91t91 36q66 0 115 -62q43 -61 43 -163v-29q0 -25 -4 -39q0 -27 -15 -68q-12 -45 -47 -96q-27 -43 -69 -84l-99 -82z" />
<glyph unicode="&#x2022;" horiz-adv-x="583" d="M162 537q0 55 35 96q39 39 86 39q57 0 98 -38t41 -93q0 -47 -38 -87t-89 -40q-55 0 -94 34.5t-39 88.5z" />
<glyph unicode="&#x2026;" horiz-adv-x="2039" d="M258 82q0 41 29 70q33 27 71 26q41 0 68 -28q29 -25 29 -70q0 -39 -29 -67.5t-72 -28.5q-39 0 -67.5 28.5t-28.5 69.5zM940 82q0 41 29 70q33 27 71 26q41 0 68 -28q29 -25 29 -70q0 -39 -29 -67.5t-72 -28.5q-39 0 -67.5 28.5t-28.5 69.5zM1608 82q0 41 28.5 69.5 t69.5 28.5t69.5 -28.5t28.5 -69.5t-28.5 -69.5t-69.5 -28.5t-69.5 28.5t-28.5 69.5z" />
<glyph unicode="&#x202f;" horiz-adv-x="383" />
<glyph unicode="&#x2039;" horiz-adv-x="485" d="M59 557l244 455h123l-174 -451l166 -457h-115z" />
<glyph unicode="&#x203a;" horiz-adv-x="485" d="M59 104l174 451l-167 457h116l244 -457l-244 -451h-123z" />
<glyph unicode="&#x205f;" horiz-adv-x="479" />
<glyph unicode="&#x20ac;" horiz-adv-x="1628" d="M86 500l61 151h1217l-49 -151h-1229zM111 782l61 152h1266l-49 -152h-1278zM309 731q0 360 194.5 575.5t528.5 215.5l60 -2q31 0 104 -15l119 -22l47 -6l49 -2l72 6l96 12l-115 -432h-75q12 45 16 84q0 33 -16 57q-25 45 -74 87t-141 81q-92 33 -170 33 q-211 0 -339 -185.5t-128 -490.5q0 -287 129 -468t348 -181q209 0 294 117.5t142 250.5h92v-354l-76 -31q-137 -55 -240.5 -79.5t-209.5 -24.5q-326 0 -516.5 209t-190.5 565z" />
<glyph unicode="&#x2122;" horiz-adv-x="1634" d="M109 1382v93h440v-93l-170 2v-647h-103v647zM524 737l148 762h33l229 -504l12 -30l4 -11q12 -31 13 -69l2 30l12 41l6 15l10 24l230 504h32l148 -762h-105l-77 445l-4 26l-3 9v32l3 33l-9 -29l-10 -34l-8 -25l-4 -8l-211 -469h-23l-211 469l-6 12l-6 21l-18 63l2 -41v-24 l-2 -9l-4 -26l-78 -445h-105z" />
<glyph unicode="&#xe000;" horiz-adv-x="1075" d="M0 0v1075h1075v-1075h-1075z" />
</font>
</defs>
</svg>
